<?xml version="1.0" encoding="utf-8"?>
<!-- Generator: Adobe Illustrator 21.0.0, SVG Export Plug-In . SVG Version: 6.00 Build 0)  -->
<svg version="1.1" id="Layer_1" xmlns="http://www.w3.org/2000/svg" xmlns:xlink="http://www.w3.org/1999/xlink" x="0px" y="0px"
	 viewBox="0 0 416 408" style="enable-background:new 0 0 416 408;" xml:space="preserve">
<style type="text/css">
	.st0{fill:#AE262C;}
	.st1{fill:#FFFFFF;}
</style>
<g>
	<g>
		<path id="Fill-4-Copy_1_" class="st0" d="M232.6,272.2c-30.8-5-57-24-70.9-51.5c-7.7-15.2-10.5-27-10.4-44.3
			c0-15.5,2.5-26.9,8.8-40.4c13.1-28.2,39.4-48.4,70.7-54.4c7.4-1.4,26.5-1.2,34.1,0.4c13.7,2.9,24.9,7.5,36.2,15
			c18.9,12.5,33.6,33.4,39.3,55.8c13.6,53.6-20.2,107.7-74.4,118.8C258.1,273.1,240.6,273.5,232.6,272.2L232.6,272.2z"/>
	</g>
	<g>
		<path class="st1" d="M296.8,227.7c-0.4-0.5-6.9-9.2-14.5-19.3l-13.7-18.3l4.3-4.3c19.3-19.4,10.1-52.9-16.4-60
			c-2.8-0.7-9.1-1-22.9-1l-19.1,0v103.9h20v-16v-16l6.8,0l6.8,0l23.7,31.8l12.9,0C294.9,228.7,297.4,228.5,296.8,227.7z
			 M256.2,173.2c-3.8,2.7-7.2,3.5-15.3,3.5l-6.5,0v-16v-16l7.2,0c8.7,0,12,0.8,15.4,3.9c3.8,3.3,5.5,7.1,5.5,12.2
			C262.6,166.2,260.5,170.2,256.2,173.2z"/>
	</g>
</g>
</svg>
