<svg xmlns="http://www.w3.org/2000/svg" viewBox="0 0 300 252.55">
  <title>WWW</title>
  <g id="shadow">
    <rect x="105.95" y="228.1" width="106.35" height="18.2" rx="9.1" ry="9.1" fill="#eaeaea"/>
  </g>
  <g id="cloud1">
    <g>
      <path d="M35.46,126.43H24.63a.57.57,0,0,1,0-1.14h9.88a13,13,0,1,1,24.63-5.74.57.57,0,0,1-1.14,0,11.84,11.84,0,1,0-22,6,.57.57,0,0,1-.49.86Z" fill="#8d6c9f"/>
      <path d="M73.83,126.72H68.11a.57.57,0,0,1-.49-.86,6,6,0,0,0-5.16-9,5.92,5.92,0,0,0-3.69,1.27.57.57,0,1,1-.7-.89,7,7,0,0,1,4.39-1.52A7.13,7.13,0,0,1,69,125.58h4.8a.57.57,0,1,1,0,1.14Z" fill="#8d6c9f"/>
    </g>
    <path d="M64.06,134.73H57.24a.57.57,0,1,1,0-1.14h6.82a.57.57,0,1,1,0,1.14Z" fill="#8d6c9f"/>
    <path d="M54.58,134.73H33a.57.57,0,1,1,0-1.14H54.58a.57.57,0,1,1,0,1.14Z" fill="#8d6c9f"/>
    <path d="M49.66,139.66H15.91a.57.57,0,0,1,0-1.14H49.66a.57.57,0,0,1,0,1.14Z" fill="#8d6c9f"/>
    <path d="M15.08,162a2.13,2.13,0,1,1,2.13-2.13A2.14,2.14,0,0,1,15.08,162Zm0-3.13a1,1,0,1,0,1,1A1,1,0,0,0,15.08,158.85Z" fill="#8d6c9f"/>
    <path d="M5.55,154.87a2.13,2.13,0,1,1,2.13-2.13A2.14,2.14,0,0,1,5.55,154.87Zm0-3.13a1,1,0,1,0,1,1A1,1,0,0,0,5.55,151.74Z" fill="#8d6c9f"/>
    <g>
      <path d="M26.15,155.72a.57.57,0,0,1-.57-.57v-3.93a.57.57,0,0,1,1.14,0v3.93A.57.57,0,0,1,26.15,155.72Z" fill="#8d6c9f"/>
      <path d="M28.12,153.76H24.18a.57.57,0,0,1,0-1.14h3.93a.57.57,0,0,1,0,1.14Z" fill="#8d6c9f"/>
    </g>
  </g>
  <g id="cloud2">
    <g>
      <path d="M295.63,158.28H284.8a.57.57,0,0,1-.49-.86,11.84,11.84,0,1,0-22-6,.57.57,0,1,1-1.14,0,13,13,0,1,1,24.62,5.74h9.88a.57.57,0,0,1,0,1.14Z" fill="#8d6c9f"/>
      <path d="M252.15,158.57H230.23a.57.57,0,0,1,0-1.14h21a7.13,7.13,0,0,1,6.57-9.88,7,7,0,0,1,4.39,1.52.57.57,0,0,1-.7.89,5.92,5.92,0,0,0-3.69-1.27,6,6,0,0,0-5.16,9,.57.57,0,0,1-.49.86Z" fill="#8d6c9f"/>
    </g>
    <path d="M285.11,163.17H267.48a.57.57,0,0,1,0-1.14h17.63a.57.57,0,0,1,0,1.14Z" fill="#8d6c9f"/>
    <path d="M220.56,178.38a2.13,2.13,0,1,1,2.13-2.13A2.14,2.14,0,0,1,220.56,178.38Zm0-3.13a1,1,0,1,0,1,1A1,1,0,0,0,220.56,175.25Z" fill="#8d6c9f"/>
    <g>
      <path d="M232.18,177.43a.57.57,0,0,1-.4-1l2.78-2.78a.57.57,0,0,1,.8.8l-2.78,2.78A.57.57,0,0,1,232.18,177.43Z" fill="#8d6c9f"/>
      <path d="M235,177.43a.57.57,0,0,1-.4-.17l-2.78-2.78a.57.57,0,0,1,.8-.8l2.78,2.78a.57.57,0,0,1-.4,1Z" fill="#8d6c9f"/>
    </g>
    <path d="M262.36,196.91H227.48a.57.57,0,0,1,0-1.14h34.88a.57.57,0,1,1,0,1.14Z" fill="#8d6c9f"/>
    <path d="M262.36,203.74H245.68a.57.57,0,0,1,0-1.14h16.68a.57.57,0,1,1,0,1.14Z" fill="#8d6c9f"/>
    <path d="M279.42,204.12H266.91a.57.57,0,0,1,0-1.14h12.51a.57.57,0,0,1,0,1.14Z" fill="#8d6c9f"/>
    <path d="M251,209.8H232.22a.57.57,0,0,1,0-1.14H251a.57.57,0,0,1,0,1.14Z" fill="#8d6c9f"/>
    <path d="M259.52,222.88h-18.2a.57.57,0,1,1,0-1.14h18.2a.57.57,0,1,1,0,1.14Z" fill="#8d6c9f"/>
    <path d="M270.89,222.88H263.5a.57.57,0,0,1,0-1.14h7.39a.57.57,0,1,1,0,1.14Z" fill="#8d6c9f"/>
  </g>
  <g id="stars_1" data-name="stars 1">
    <path d="M183.17,61.36a2.13,2.13,0,1,1,2.13-2.13A2.14,2.14,0,0,1,183.17,61.36Zm0-3.13a1,1,0,1,0,1,1A1,1,0,0,0,183.17,58.24Z" fill="#8d6c9f"/>
    <path d="M173.64,54.25a2.13,2.13,0,1,1,2.13-2.13A2.14,2.14,0,0,1,173.64,54.25Zm0-3.13a1,1,0,1,0,1,1A1,1,0,0,0,173.64,51.13Z" fill="#8d6c9f"/>
    <g>
      <path d="M194.23,55.11a.57.57,0,0,1-.57-.57V50.6a.57.57,0,0,1,1.14,0v3.93A.57.57,0,0,1,194.23,55.11Z" fill="#8d6c9f"/>
      <path d="M196.2,53.14h-3.93a.57.57,0,1,1,0-1.14h3.93a.57.57,0,0,1,0,1.14Z" fill="#8d6c9f"/>
    </g>
  </g>
  <g id="stars2">
    <path d="M47,9.23A2.13,2.13,0,1,1,49.13,7.1,2.14,2.14,0,0,1,47,9.23ZM47,6.1a1,1,0,1,0,1,1A1,1,0,0,0,47,6.1Z" fill="#8d6c9f"/>
    <g>
      <path d="M58.62,8.27a.57.57,0,0,1-.4-1L61,4.52a.57.57,0,0,1,.8.8L59,8.11A.57.57,0,0,1,58.62,8.27Z" fill="#8d6c9f"/>
      <path d="M61.4,8.27a.57.57,0,0,1-.4-.17L58.22,5.33a.57.57,0,0,1,.8-.8L61.8,7.3a.57.57,0,0,1-.4,1Z" fill="#8d6c9f"/>
    </g>
    <g>
      <path d="M55.59,17.76A.57.57,0,0,1,55,17.2L55,13.27a.57.57,0,0,1,.56-.58h0a.57.57,0,0,1,.57.56l.06,3.93a.57.57,0,0,1-.56.58Z" fill="#8d6c9f"/>
      <path d="M53.59,15.83a.57.57,0,0,1,0-1.14l3.93-.06h0a.57.57,0,0,1,0,1.14l-3.93.06Z" fill="#8d6c9f"/>
    </g>
  </g>
  <g id="earth">
    <g>
      <circle cx="159.12" cy="134.84" r="61.67" fill="#85cbf8"/>
      <path d="M161.13,190.56a57.79,57.79,0,0,1-57.72-57.72,1.14,1.14,0,0,1,2.27,0,55.51,55.51,0,0,0,55.45,55.45,1.14,1.14,0,0,1,0,2.27Z" fill="#d2efff"/>
      <path d="M128.13,171.47c2.63-1.13,5.14-5.78,6.64-8.4s3-3.26,5.89-3.26,6-4.89,6.77-7.53,2.37-2.51,4.51-6.15-7.27-7.15-9.28-8-1.25-2.89-3.26-7.27-7.91-6.52-10-6.9-6.27-3.76-6.27-3.76c-2.26-2.26-5.78,1.63-7.53,1.76s-3.63-5.39-3.13-7-1.38-2.38-1.38-2.38,2.61-1.2,2.86-2.36-1.75-1.53-3.51-.9a1.35,1.35,0,0,1-2-1c-1.81-8,6.14-9.16,9-9.28s3.27,5,4.89,6.65,2.26-5.9,2.26-7.4,3.38-2.26,4-3.13.86-.25,3,.25S136.15,92.6,137,92s2.64,0,4.77,0,2-.25,2.64-1.63,3-.25,4,.75,1.89-.5,2.76-2,0-2.75-1.38-3.38,1.25-2.26-.25-4.14-2.64,2.64-4.14,1-3.38,2.13-6.77,3.38.51-7.12,1.88-7.9,2.75-.5,3.13.13,1.25-.13,2.76-.63,2-1,3.89.75,2.89-1.13,4.14-1.76c.52-.26.26-1.64-.23-3.16a61.68,61.68,0,0,0-51.18,35.77c.9,1.83,1.9,3.3,2.61,3.35,1.63.13,1.76,1.63,1.76,3.89s2.89,5.77,5,6.4,1.38,5.26-1.38,8.53-1,11.42.75,12.55,3.76,3.14,3.76,5.16.5,4.86,2,6-.75,16.69-1,21.08a8.23,8.23,0,0,0,1,4.35,62,62,0,0,0,4.94,4,39.75,39.75,0,0,0,.3-6.39C122.86,174.23,125.5,172.59,128.13,171.47Z" fill="#97e0bb"/>
      <path d="M157.46,74.47c-.76,1.25-2.13,3.38-1,7.65S159,87.9,160.23,86s2.38-6.15,5-6.27c2.4-.12,10.93-1.58,12.41-3.74a61.64,61.64,0,0,0-18.53-2.84c-.52,0-1,0-1.54,0A1.67,1.67,0,0,1,157.46,74.47Z" fill="#97e0bb"/>
      <path d="M184.56,84.68c-.13,2.13,1,5.42,2.13,5.42s3.13-1,2.76,0a1.66,1.66,0,0,0,1.63,2.38c1.63,0,1.76-.38,1.63.75s-.9,1.76,0,2.76.66,1,0,1.88-2.27,3.51-3.79,3.51-6.65-.62-6.32,1.25,2.76,6.77,5.33,6.65,3.82,1.13,4.58-.75,1.51-6.27,3-5.64,2.64,3.26,2.64,5,1.51,2.89,2.51.75,1.13-3.38,3.26-1.76,10.91,8.91,8.12,9.66-5.42,1.88-6.4,0-4-4.89-6.15-4.77-2.51.62-4.64-.13-4.14-2-4.64-1.25-.75,1.76-2.38,1.88-5.51,2-5.89,3.51-5.89,2.64-5.14,4.51,0,6.06-.51,8-.75,7.76,3.61,10.89,6,3.51,9.4,3.13,4.28-1.39,5,.12,2.18,2.52,2.94,1.51,1.51-1.07,1.51.41-3.76,6.74-2.89,9.63,3.51,5.14,2.13,7.15-6.4,5.42-5.89,8.4,1.88,3.51,1.51,5.27-7.15,9.66-2.89,11.66c2.29,1.08,12.77-10.34,22-21.15a61.64,61.64,0,0,0-16.16-79.56l-5.45-2.64S184.69,82.55,184.56,84.68Z" fill="#97e0bb"/>
      <path d="M122.56,185.07a.57.57,0,0,1-.34-.11,62.29,62.29,0,0,1-5-4.08.57.57,0,0,1-.12-.15,8.79,8.79,0,0,1-1.1-4.65c.07-1.18.28-3.15.52-5.44.49-4.61,1.52-14.2.69-15.16-1.63-1.23-2.21-4.13-2.21-6.44,0-1.68-1.76-3.57-3.5-4.69-1.18-.76-2-3.36-2.26-5.36-.25-1.63-.6-5.68,1.38-8s2.8-5.35,2.36-6.8a1.08,1.08,0,0,0-.71-.82c-2.27-.67-5.43-4.3-5.43-6.94s-.25-3.25-1.24-3.32c-.33,0-1.33-.1-3.08-3.67a.57.57,0,0,1,0-.49,62.26,62.26,0,0,1,51.66-36.1.55.55,0,0,1,.59.39c.73,2.3.72,3.45-.06,3.84a4.19,4.19,0,0,0-1,.9,3.43,3.43,0,0,1-2.19,1.48,2.29,2.29,0,0,1-1.64-.71c-1.41-1.31-1.74-1.2-2.83-.8l-.49.18c-.45.15-.85.33-1.18.48-.8.36-1.72.77-2.25-.09-.17-.28-1.18-.6-2.37.08-.88.5-3.42,5.73-2.88,6.9.06.12.39,0,.52,0a11.84,11.84,0,0,0,3.44-2.27c1.33-1.14,2.71-2.31,3.95-1,.06.07.18.18.26.18h0c.22,0,.63-.43.93-.74a2.68,2.68,0,0,1,1.81-1.09,1.59,1.59,0,0,1,1.16.68,2.93,2.93,0,0,1,.18,3.3,2.25,2.25,0,0,0-.22.65,3.48,3.48,0,0,1,2,2,2.7,2.7,0,0,1-.31,2.21c-.74,1.27-1.43,2.47-2.42,2.6a1.45,1.45,0,0,1-1.23-.48,4,4,0,0,0-2.71-1.21.48.48,0,0,0-.39.29l-.16.37c-.58,1.31-.9,1.6-3,1.6a19.49,19.49,0,0,1-2.24-.16,4,4,0,0,0-2.2.06,9,9,0,0,0-.78.75c-1.25,1.27-3.15,3.18-5.09,2.73a14.43,14.43,0,0,1-1.65-.5,4.57,4.57,0,0,0-.6-.18,1,1,0,0,0-.17.2,5,5,0,0,1-1.78,1.17c-.9.44-2.13,1.05-2.13,1.63,0,.07-.21,7.38-2,8.12a1.09,1.09,0,0,1-1.22-.32,9.05,9.05,0,0,1-1.59-3c-.7-1.74-1.42-3.54-2.81-3.54h-.07c-1.65.07-5.7.5-7.66,3.05a6.44,6.44,0,0,0-.84,5.54.83.83,0,0,0,.31.57.75.75,0,0,0,.58.15.77.77,0,0,0,.28-.09c1.55-.57,3.15-.46,3.91.2a1.32,1.32,0,0,1,.44,1.33c-.2.93-1.39,1.77-2.27,2.28a2.3,2.3,0,0,1,.78,2.5c-.31,1,.58,4.24,1.75,5.71.29.37.58.59.78.59h0a6.52,6.52,0,0,0,2-.94c1.76-1,4.16-2.46,6-.65,1.08.88,4.34,3.32,6,3.61,2,.36,8.27,2.45,10.45,7.22a23.9,23.9,0,0,1,1.5,4.43c.41,1.61.59,2.18,1.46,2.56l.65.27c4,1.69,8.29,3.76,9.14,6.3a2.64,2.64,0,0,1-.24,2.26,15,15,0,0,1-2.75,3.45,5.15,5.15,0,0,0-1.71,2.57c-.76,2.69-4,7.94-7.32,7.94-2.87,0-4.08.67-5.4,3l-.32.56c-1.58,2.77-4,7-6.59,8.08h0c-2.56,1.1-4.93,2.6-4.93,6.12a39.87,39.87,0,0,1-.31,6.5.57.57,0,0,1-.56.45Zm-4.48-5c1.27,1.15,2.63,2.28,4.06,3.37.15-1.47.15-3.59.15-5.36,0-4.19,2.84-6,5.62-7.16h0c2.27-1,4.64-5.13,6.05-7.6l.32-.56c1.71-3,3.56-3.54,6.39-3.54,2.57,0,5.53-4.67,6.22-7.11a6.26,6.26,0,0,1,2-3.07,13.78,13.78,0,0,0,2.56-3.21,1.52,1.52,0,0,0,.15-1.32c-.8-2.4-6.39-4.73-8.5-5.61l-.66-.28c-1.43-.62-1.72-1.76-2.11-3.33a22.59,22.59,0,0,0-1.44-4.23c-1.84-4-7.27-6.16-9.62-6.57s-6.36-3.74-6.53-3.89c-1.15-1.14-2.64-.39-4.64.79a6.56,6.56,0,0,1-2.49,1.1,2.22,2.22,0,0,1-1.77-1c-1.35-1.7-2.39-5.29-1.95-6.74.34-1.12-1-1.67-1-1.69a.57.57,0,0,1,0-1c.95-.44,2.41-1.36,2.54-2a.2.2,0,0,0-.08-.23,3.25,3.25,0,0,0-2.69,0,1.66,1.66,0,0,1-.6.19,1.91,1.91,0,0,1-2.16-1.65,7.47,7.47,0,0,1,1.06-6.43c2.25-2.93,6.7-3.42,8.51-3.49,2.2-.14,3.16,2.21,4,4.25a8.43,8.43,0,0,0,1.34,2.57c.67-.34,1.29-5,1.29-7,0-1.28,1.47-2,2.76-2.65a5.42,5.42,0,0,0,1.37-.82c.67-.93,1.3-.71,2.08-.43a12.91,12.91,0,0,0,1.53.46c1.31.3,3-1.4,4-2.42a8.5,8.5,0,0,1,.94-.88c.73-.52,1.78-.4,3-.26a18.24,18.24,0,0,0,2.11.16c1.55,0,1.55,0,1.95-.91l.17-.39a1.6,1.6,0,0,1,1.22-.94c1.28-.25,2.94.75,3.71,1.52a.39.39,0,0,0,.28.16c.43-.06,1.16-1.3,1.59-2a1.58,1.58,0,0,0,.21-1.3,2.36,2.36,0,0,0-1.34-1.29c-1.14-.52-.7-1.55-.44-2.16.35-.84.54-1.44,0-2.14a.58.58,0,0,0-.33-.26c-.22,0-.63.43-.93.74a2.68,2.68,0,0,1-1.75,1.09h0a1.49,1.49,0,0,1-1.09-.55c-.42-.46-.89-.19-2.37,1.07a12.92,12.92,0,0,1-3.78,2.47c-1.31.48-1.8-.23-2-.55C136,84,139,78.24,140.26,77.55c1.64-.93,3.35-.59,3.9.32l.81-.36c.37-.16.79-.35,1.28-.52l.47-.16c1.36-.5,2.15-.67,4,1,.3.28.6.48.81.4.45,0,.93-.56,1.4-1.09a4.81,4.81,0,0,1,1.3-1.16h0a6.2,6.2,0,0,0-.38-2,61.13,61.13,0,0,0-50.14,35.16c1.12,2.22,1.86,2.77,2,2.79,2.29.18,2.29,2.55,2.29,4.46s2.63,5.27,4.61,5.86a2.18,2.18,0,0,1,1.47,1.58c.61,2-.5,5.4-2.58,7.86-1.17,1.38-1.59,4-1.13,7.12.36,2.39,1.17,4.21,1.75,4.58,1.95,1.25,4,3.38,4,5.64,0,2.09.55,4.62,1.78,5.55s.86,5.7-.26,16.18c-.24,2.27-.45,4.23-.52,5.38A7.51,7.51,0,0,0,118.08,180.11Zm10.05-8.64h0Z" fill="#8d6c9f"/>
      <path d="M159.13,87.39l-.22,0c-1.16-.19-2.14-1.86-3-5.09-1.17-4.42.26-6.76,1-8l.53.22-.49-.29a1.13,1.13,0,0,0,.05-.85.57.57,0,0,1,.54-.7H158l1.08,0a62.21,62.21,0,0,1,18.7,2.86.57.57,0,0,1,.3.86c-1.74,2.53-11.08,3.9-12.85,4-1.59.08-2.62,2.19-3.52,4.06a17.29,17.29,0,0,1-1,2A1.93,1.93,0,0,1,159.13,87.39Zm-.91-13.63a1.92,1.92,0,0,1-.27,1h0l0,.08C157.18,76,156,78,157,82s2,4.24,2.08,4.26c.25.07.55-.37.66-.54a16.53,16.53,0,0,0,1-1.83c1-2,2.22-4.59,4.49-4.7,2.54-.12,9.07-1.36,11.34-2.91a61.1,61.1,0,0,0-17.44-2.53Z" fill="#8d6c9f"/>
      <path d="M191.09,187.21a1.38,1.38,0,0,1-.64-.16,2.81,2.81,0,0,1-1.59-1.78c-.7-2.31,1.4-5.74,2.92-8.25a13.23,13.23,0,0,0,1.24-2.27,2.65,2.65,0,0,0-.44-1.93,10.15,10.15,0,0,1-1.07-3.13c-.4-2.38,2.07-4.81,4.06-6.75a17.43,17.43,0,0,0,1.92-2.07c.66-1,.12-2-.83-3.71a15.08,15.08,0,0,1-1.38-3c-.62-2.06.75-4.95,1.85-7.27a10.53,10.53,0,0,0,1-2.52,2.07,2.07,0,0,0-.05-.52,2,2,0,0,0-.43.45,1.5,1.5,0,0,1-1.41.62,3.61,3.61,0,0,1-2.51-2.24c-.24-.54-.27-.6-1.72-.26a22.58,22.58,0,0,1-2.66.47c-3.5.39-5.31,0-9.8-3.23-4.69-3.36-4.35-9.44-3.83-11.5.56-2.21,1.17-6.08.53-7.69s1.29-2.53,3-3.4c.87-.45,2.05-1.06,2.16-1.47.47-1.87,4.64-3.81,6.4-3.94a1.81,1.81,0,0,0,1.69-1.19c.08-.15.17-.3.26-.43l.08-.11a8.06,8.06,0,0,0-1.87-.13c-3.11.14-5.61-5.42-5.92-7.12a1.32,1.32,0,0,1,.31-1.15c.84-1,3.12-.94,5.58-.81l1,0c1,0,2.35-1.9,3-2.81l.34-.48.24-.3a2.42,2.42,0,0,0,.24-.34h0s-.11-.14-.44-.52a2.08,2.08,0,0,1-.35-2.39,4,4,0,0,0,.21-.82s0-.1,0-.16h-.08l-1.16,0a2.2,2.2,0,0,1-1-.23,2.23,2.23,0,0,1-1.18-2.56l-.56.13c-.94.23-1.85.53-2.62-.28A8.69,8.69,0,0,1,184,84.65l.57,0-.57,0a1.62,1.62,0,0,1,.6-1.15c1.56-1.33,6-.94,6.55-.89a.55.55,0,0,1,.19.06l5.45,2.64a62.19,62.19,0,0,1,16.41,80.35C196.84,184.83,192.6,187.21,191.09,187.21Zm7.1-44.51a.93.93,0,0,1,.31.05c.53.18.8.74.8,1.66a8.89,8.89,0,0,1-1.12,3c-1,2-2.29,4.81-1.79,6.45a13.94,13.94,0,0,0,1.28,2.73c.92,1.63,1.87,3.32.77,4.91a17.85,17.85,0,0,1-2.06,2.23c-1.8,1.76-4,4-3.74,5.75a9.09,9.09,0,0,0,1,2.81,3.69,3.69,0,0,1,.54,2.67,11.14,11.14,0,0,1-1.38,2.63c-1.34,2.19-3.35,5.5-2.81,7.33a1.7,1.7,0,0,0,1,1.07c.4.17,3.35.05,21.33-21a61.1,61.1,0,0,0-16.07-78.74l-5.26-2.54c-1.73-.16-4.72-.12-5.6.63a.47.47,0,0,0-.2.35,7.75,7.75,0,0,0,1.3,4.63c.14.15.24.18.26.18a6.24,6.24,0,0,0,1.26-.23c.85-.22,1.53-.38,1.92.06a.86.86,0,0,1,.12.93,1.15,1.15,0,0,0-.07.89,1.09,1.09,0,0,0,.55.63,1.16,1.16,0,0,0,.57.11c.44,0,.74,0,1,0,.45,0,.82-.06,1.09.23s.24.71.19,1.19a4.77,4.77,0,0,1-.26,1.06c-.2.6-.28.82.12,1.26.9,1,.95,1.44.25,2.32l-.22.28-.32.45c-.87,1.23-2.33,3.29-3.92,3.29l-1,0c-1.23-.06-4.12-.2-4.67.43a.2.2,0,0,0,0,.2c.34,1.87,2.61,6.19,4.68,6.19h.44a11.33,11.33,0,0,1,1.95.2c1.19.2,1.43.21,1.75-.58.19-.46.37-1.08.57-1.74.55-1.83,1.12-3.71,2.14-4.19a1.24,1.24,0,0,1,1,0c1.71.72,3,3.52,3,5.54,0,.79.36,1.29.61,1.34s.55-.28.81-.84c.13-.27.24-.53.34-.76.45-1,.8-1.82,1.57-2,.61-.15,1.25.09,2.2.82.09.07,9.37,7.18,8.86,9.74a1.19,1.19,0,0,1-.94.92l-1.18.34c-2.36.68-4.81,1.4-5.87-.62-.94-1.8-3.75-4.47-5.51-4.47h-.1c-.61,0-1.07.1-1.46.16a5.85,5.85,0,0,1-3.4-.32c-.63-.22-1.25-.49-1.83-.73a6.13,6.13,0,0,0-2.19-.71c0,.09-.11.21-.18.34a2.92,2.92,0,0,1-2.59,1.76c-1.62.12-5.11,2-5.38,3.08-.23.9-1.39,1.5-2.74,2.2-1.12.58-2.67,1.38-2.43,2,1,2.51-.42,8.16-.48,8.39-.44,1.72-.75,7.31,3.39,10.29s5.74,3.39,9,3a21.62,21.62,0,0,0,2.53-.46c1.37-.32,2.35-.54,3,.9a2.63,2.63,0,0,0,1.6,1.58.38.38,0,0,0,.38-.18C197.33,142.91,197.82,142.7,198.19,142.7Zm-.13,1.08Zm1.57-32.56c2.5,0,5.6,3.31,6.52,5.07.59,1.13,2.11.76,4.54.06l1.2-.34c.44-1-4.25-5.55-8.32-8.66-.83-.63-1.12-.65-1.23-.62s-.53.73-.82,1.38c-.11.25-.22.51-.36.79-.74,1.57-1.71,1.55-2.09,1.46a2.37,2.37,0,0,1-1.5-2.45c0-1.59-1.06-4-2.29-4.49-.68.26-1.29,2.28-1.65,3.49-.21.7-.41,1.35-.61,1.84a2.18,2.18,0,0,1-.94,1.19c.37.14.77.31,1.2.49s1.15.49,1.76.7a4.74,4.74,0,0,0,2.85.27c.43-.06.92-.13,1.56-.17Z" fill="#8d6c9f"/>
      <path d="M159.12,198.22a63.38,63.38,0,1,1,63.38-63.38A63.45,63.45,0,0,1,159.12,198.22Zm0-123.35a60,60,0,1,0,60,60A60,60,0,0,0,159.12,74.87Z" fill="#8d6c9f"/>
    </g>
  </g>
  <g id="yellow_chat" data-name="yellow chat">
    <g>
      <path d="M73,12.36h61.58a13.08,13.08,0,0,1,13.08,13.08h0v30a13.08,13.08,0,0,1-13.08,13.08h-.63l5.78,18.39L116.61,68.49H72.93A13.08,13.08,0,0,1,59.85,55.41h0v-30A13.08,13.08,0,0,1,72.93,12.36Z" fill="#fff1d2"/>
      <path d="M139.68,88.57a1.7,1.7,0,0,1-1.06-.37l-22.6-18H72.93A14.8,14.8,0,0,1,58.15,55.41v-30A14.8,14.8,0,0,1,72.93,10.65h61.6a14.8,14.8,0,0,1,14.78,14.78v30A14.81,14.81,0,0,1,136.2,70.09l5.11,16.26a1.71,1.71,0,0,1-1.63,2.22ZM72.93,14.06A11.38,11.38,0,0,0,61.56,25.44v30A11.38,11.38,0,0,0,72.93,66.78h43.67a1.7,1.7,0,0,1,1.06.37l18.71,14.9L132.28,69a1.71,1.71,0,0,1,1.63-2.22h.63A11.38,11.38,0,0,0,145.91,55.4v-30a11.38,11.38,0,0,0-11.37-11.37Z" fill="#8d6c9f"/>
    </g>
  </g>
  <g id="yellow_guy" data-name="yellow guy">
    <g>
      <path d="M74.44,55.46V34.57A10.24,10.24,0,0,1,84.69,24.32h0A10.24,10.24,0,0,1,94.93,34.57v20.9" fill="#f6d397"/>
      <path d="M83.38,45.93h0a7.55,7.55,0,0,0,7.55-7.55V32l-9.1-3.75c0,3.93-6,3.75-6,3.75v6.43A7.55,7.55,0,0,0,83.38,45.93Z" fill="#fff"/>
      <path d="M85.12,48.35a1,1,0,0,1-1,1h-.58a1.62,1.62,0,0,0,1.62-1.62h0V46.1H81.83v1.68a1.62,1.62,0,0,0,1.62,1.62h-.58a1,1,0,0,1-1-1h0s-7.31-.22-7.31,7.31l17.75.13A6.92,6.92,0,0,0,85.12,48.35Z" fill="#fff"/>
      <path d="M74.5,56.25a.57.57,0,0,1-.57-.57A7.62,7.62,0,0,1,76.07,50a8.78,8.78,0,0,1,5.76-2.16.57.57,0,0,1,.55.54.48.48,0,0,0,.48.45h1.21a.48.48,0,0,0,.48-.48.57.57,0,0,1,.53-.57,8,8,0,0,1,5.57,1.88,7.59,7.59,0,0,1,2.18,5.82.57.57,0,0,1-1.14,0,6.51,6.51,0,0,0-1.81-5,6.73,6.73,0,0,0-4.29-1.59,1.62,1.62,0,0,1-1.51,1.05H82.86a1.61,1.61,0,0,1-1.48-1,7.36,7.36,0,0,0-4.52,1.83,6.55,6.55,0,0,0-1.78,4.89A.57.57,0,0,1,74.5,56.25Z" fill="#8d6c9f"/>
      <path d="M83.38,46.5a8.13,8.13,0,0,1-8.12-8.12V32a.56.56,0,0,1,.17-.41.76.76,0,0,1,.41-.16S79,31.45,80.48,30a2.41,2.41,0,0,0,.74-1.82.57.57,0,1,1,1.14,0,3.54,3.54,0,0,1-1.09,2.64c-1.4,1.36-3.78,1.63-4.88,1.68v5.87a7,7,0,1,0,14,0V32a.57.57,0,1,1,1.14,0v6.43A8.13,8.13,0,0,1,83.38,46.5Z" fill="#8d6c9f"/>
      <path d="M84.31,50H82.64a1.4,1.4,0,0,1-1.4-1.4V46.1a.57.57,0,0,1,.57-.57h3.32a.57.57,0,0,1,.57.57v2.47A1.4,1.4,0,0,1,84.31,50Zm-1.92-3.3v1.9a.26.26,0,0,0,.26.26h1.66a.26.26,0,0,0,.26-.26v-1.9Z" fill="#8d6c9f"/>
      <path d="M93.57,56.25a.57.57,0,0,1-.57-.57V32.58A9.6,9.6,0,0,0,83.39,23h0a9.61,9.61,0,0,0-9.6,9.6v23.1a.57.57,0,1,1-1.14,0V32.58A10.75,10.75,0,0,1,83.38,21.84h0A10.74,10.74,0,0,1,94.13,32.57V55.68A.57.57,0,0,1,93.57,56.25Z" fill="#8d6c9f"/>
    </g>
  </g>
  <g id="yellow_1" data-name="yellow 1">
    <rect x="99.2" y="27.49" width="38.13" height="3.69" fill="#8d6c9f"/>
  </g>
  <g id="yellow_2" data-name="yellow 2">
    <rect x="99.2" y="34.89" width="35.14" height="3.69" fill="#8d6c9f"/>
  </g>
  <g id="yellow_3" data-name="yellow 3">
    <rect x="99.2" y="42.28" width="38.13" height="3.69" fill="#8d6c9f"/>
  </g>
  <g id="yellow_4" data-name="yellow 4">
    <rect x="99.2" y="49.66" width="19.07" height="3.69" fill="#8d6c9f"/>
  </g>
  <g id="green_chat" data-name="green chat">
    <g>
      <path d="M113.45,208.14H51.86a13.08,13.08,0,0,1-13.08-13.08h0v-30A13.08,13.08,0,0,1,51.86,152H95.54l23.06-18.39L112.82,152h.63a13.08,13.08,0,0,1,13.08,13.08v30a13.08,13.08,0,0,1-13.07,13.09Z" fill="#72caaf"/>
      <path d="M113.46,209.85H51.86a14.8,14.8,0,0,1-14.78-14.78v-30a14.8,14.8,0,0,1,14.78-14.78H94.94l22.6-18a1.71,1.71,0,0,1,2.69,1.85l-5.11,16.26a14.81,14.81,0,0,1,13.12,14.69v30A14.8,14.8,0,0,1,113.46,209.85Zm-61.6-56.13a11.38,11.38,0,0,0-11.37,11.37v30a11.39,11.39,0,0,0,11.37,11.38h61.6a11.37,11.37,0,0,0,11.36-11.38v-30a11.38,11.38,0,0,0-11.37-11.37h-.63a1.71,1.71,0,0,1-1.63-2.22l4.11-13.06L96.6,153.35a1.71,1.71,0,0,1-1.06.37Z" fill="#8d6c9f"/>
    </g>
  </g>
  <g id="green_guy" data-name="green guy">
    <g>
      <path d="M63.69,189.05a1,1,0,0,1-1,1h-.55a1.53,1.53,0,0,0,1.53-1.53v-1.58h-.78a7.87,7.87,0,0,0,6.87-7.79V170.8l-.13,0c2.45-1.77,2.54-6.11,2.54-6.11H58.05a4.12,4.12,0,0,0-4.12,4.12v10.29a7.87,7.87,0,0,0,6.87,7.79h-.23v1.58A1.53,1.53,0,0,0,62.11,190h-.55a1,1,0,0,1-1-1s-6.9-.21-6.9,6.9l16.74-.16C70.42,188.55,63.69,189.05,63.69,189.05Z" fill="#fff"/>
      <path d="M53.79,171.93V169A4.26,4.26,0,0,1,58,164.75H72.66s-.14,7.08-5.06,7.08Z" fill="#97e0bb"/>
      <g>
        <path d="M60.63,186.94a9,9,0,0,1-9-8.94V167.08a4.94,4.94,0,0,1,4.94-4.94h15a.57.57,0,0,1,.57.58c0,1.89-.67,5-2.57,6.64V178A8.94,8.94,0,0,1,60.63,186.94Zm-4.07-23.66a3.8,3.8,0,0,0-3.8,3.8V178a7.83,7.83,0,0,0,15.67,0v-7.89a4.85,4.85,0,0,1-2.06.43.57.57,0,0,1,0-1.14c3.65,0,4.43-4.5,4.59-6.13Z" fill="#8d6c9f"/>
        <path d="M61.7,190.13H60.06a1.4,1.4,0,0,1-1.4-1.4v-2.47a.57.57,0,0,1,.57-.57h3.3a.57.57,0,0,1,.57.57v2.47A1.4,1.4,0,0,1,61.7,190.13Zm-1.9-3.3v1.9a.26.26,0,0,0,.26.26H61.7a.26.26,0,0,0,.26-.26v-1.9Z" fill="#8d6c9f"/>
        <path d="M51.92,196.4a.57.57,0,0,1-.57-.57,7.62,7.62,0,0,1,2.13-5.72,8.84,8.84,0,0,1,5.77-2.16.57.57,0,0,1,.55.57.48.48,0,0,0,.48.48h1.21a.48.48,0,0,0,.48-.48.57.57,0,0,1,.53-.57,8,8,0,0,1,5.57,1.88,7.59,7.59,0,0,1,2.18,5.82.57.57,0,0,1-1.14,0,6.5,6.5,0,0,0-1.82-5A6.69,6.69,0,0,0,63,189.08a1.62,1.62,0,0,1-1.52,1.05H60.27a1.62,1.62,0,0,1-1.51-1,7.35,7.35,0,0,0-4.5,1.83,6.55,6.55,0,0,0-1.78,4.89A.57.57,0,0,1,51.92,196.4Z" fill="#8d6c9f"/>
      </g>
    </g>
  </g>
  <g id="green_1" data-name="green 1">
    <rect x="76.33" y="167.12" width="38.13" height="3.69" fill="#8d6c9f"/>
  </g>
  <g id="green_2" data-name="green 2">
    <rect x="76.33" y="174.51" width="38.13" height="3.69" fill="#8d6c9f"/>
  </g>
  <g id="green_3" data-name="green 3">
    <rect x="76.33" y="181.9" width="38.13" height="3.69" fill="#8d6c9f"/>
  </g>
  <g id="green_4" data-name="green 4">
    <rect x="76.33" y="189.29" width="19.07" height="3.69" fill="#8d6c9f"/>
  </g>
  <g id="red_chat" data-name="red chat">
    <g>
      <path d="M276,70.52h-61.6A13.08,13.08,0,0,0,201.33,83.6h0v30a13.08,13.08,0,0,0,13.08,13.08H215L209.22,145l23.06-18.39H276a13.08,13.08,0,0,0,13.08-13.08v-30A13.08,13.08,0,0,0,276,70.52Z" fill="#f994b3"/>
      <path d="M209.22,146.74a1.71,1.71,0,0,1-1.63-2.22l5.15-16.27a14.81,14.81,0,0,1-13.12-14.69v-30a14.8,14.8,0,0,1,14.78-14.78H276a14.8,14.8,0,0,1,14.78,14.79v30A14.8,14.8,0,0,1,276,128.36H232.88l-22.6,18A1.71,1.71,0,0,1,209.22,146.74Zm5.19-74.52A11.38,11.38,0,0,0,203,83.6v30a11.38,11.38,0,0,0,11.37,11.37H215a1.7,1.7,0,0,1,1.63,2.22l-4.13,13.05,18.68-14.89a1.71,1.71,0,0,1,1.06-.37H276a11.38,11.38,0,0,0,11.37-11.37v-30A11.39,11.39,0,0,0,276,72.23v0Z" fill="#8d6c9f"/>
    </g>
  </g>
  <g id="red_guy" data-name="red guy">
    <path d="M223.5,109.05a1,1,0,0,1-1,1H222a1.53,1.53,0,0,0,1.53-1.53v-1.58h-.78a7.87,7.87,0,0,0,6.87-7.79V90.8l-.13,0c2.45-1.77,2.54-6.11,2.54-6.11H217.87a4.12,4.12,0,0,0-4.12,4.12V99.14a7.87,7.87,0,0,0,6.87,7.79h-.23v1.58a1.53,1.53,0,0,0,1.53,1.53h-.55a1,1,0,0,1-1-1s-6.9-.21-6.9,6.9l16.74-.16C230.23,108.55,223.5,109.05,223.5,109.05Z" fill="#fff"/>
    <path d="M213.32,91.6V88.68a4.26,4.26,0,0,1,4.26-4.26h14.62s-.14,7.08-5.06,7.08Z" fill="#ed7899"/>
    <g>
      <path d="M220.44,106.94a9,9,0,0,1-9-8.94V87.08a4.94,4.94,0,0,1,4.94-4.94h15a.57.57,0,0,1,.57.58c0,1.89-.67,5-2.57,6.64V98A8.94,8.94,0,0,1,220.44,106.94Zm-4.07-23.66a3.8,3.8,0,0,0-3.8,3.8V98a7.83,7.83,0,0,0,15.67,0V90.11a4.85,4.85,0,0,1-2.06.43.57.57,0,1,1,0-1.14c3.65,0,4.43-4.5,4.59-6.13Z" fill="#8d6c9f"/>
      <path d="M221.51,110.13h-1.64a1.4,1.4,0,0,1-1.4-1.4v-2.47a.57.57,0,0,1,.57-.57h3.3a.57.57,0,0,1,.57.57v2.47A1.4,1.4,0,0,1,221.51,110.13Zm-1.9-3.3v1.9a.26.26,0,0,0,.26.26h1.64a.26.26,0,0,0,.26-.26v-1.9Z" fill="#8d6c9f"/>
      <path d="M211.73,116.4a.57.57,0,0,1-.57-.57,7.62,7.62,0,0,1,2.13-5.72,8.77,8.77,0,0,1,5.76-2.16.57.57,0,0,1,.55.57.48.48,0,0,0,.48.48h1.21a.48.48,0,0,0,.48-.48.57.57,0,0,1,.53-.57,8,8,0,0,1,5.57,1.88,7.58,7.58,0,0,1,2.18,5.82.57.57,0,1,1-1.14,0,6.5,6.5,0,0,0-1.82-5,6.72,6.72,0,0,0-4.28-1.59,1.61,1.61,0,0,1-1.51,1.05h-1.21a1.62,1.62,0,0,1-1.51-1,7.35,7.35,0,0,0-4.5,1.83,6.55,6.55,0,0,0-1.78,4.9A.57.57,0,0,1,211.73,116.4Z" fill="#8d6c9f"/>
    </g>
  </g>
  <g id="red_1" data-name="red 1">
    <rect x="238.48" y="85.66" width="38.13" height="3.69" fill="#8d6c9f"/>
  </g>
  <g id="red_2" data-name="red 2">
    <rect x="238.48" y="93.05" width="35.14" height="3.69" fill="#8d6c9f"/>
  </g>
  <g id="red_3" data-name="red 3">
    <rect x="238.48" y="100.43" width="38.13" height="3.69" fill="#8d6c9f"/>
  </g>
  <g id="red_4" data-name="red 4">
    <rect x="238.48" y="107.82" width="19.07" height="3.69" fill="#8d6c9f"/>
  </g>
</svg>
