<?xml version="1.0" standalone="no"?>
<!DOCTYPE svg PUBLIC "-//W3C//DTD SVG 1.1//EN" "http://www.w3.org/Graphics/SVG/1.1/DTD/svg11.dtd" >
<svg xmlns="http://www.w3.org/2000/svg" xmlns:xlink="http://www.w3.org/1999/xlink" version="1.1">
<metadata></metadata>
<defs>
<font id="rakuten_globalb" horiz-adv-x="1392" >
<font-face units-per-em="2048" ascent="1718" descent="-330" />
<missing-glyph horiz-adv-x="512" />
<glyph unicode="&#xfb01;" horiz-adv-x="1433" d="M29 1004v286h186v37q0 416 416 416h143v-287h-121q-131 0 -131 -131v-35h277v-286h-277v-1004h-307v1004h-186zM973 0v1290h307v-1290h-307zM973 1411v307h307v-307h-307z" />
<glyph unicode="&#xfb02;" horiz-adv-x="1433" d="M29 1004v286h186v37q0 416 416 416h143v-287h-121q-131 0 -131 -131v-35h277v-286h-277v-1004h-307v1004h-186zM973 0v1718h307v-1718h-307z" />
<glyph unicode="&#xfb03;" horiz-adv-x="2170" d="M29 1004v286h186v37q0 416 416 416h143v-287h-121q-131 0 -131 -131v-35h430v37q0 416 416 416h143v-287h-120q-131 0 -131 -131v-35h276v-286h-276v-1004h-308v1004h-430v-1004h-307v1004h-186zM1710 0v1290h307v-1290h-307zM1710 1411v307h307v-307h-307z" />
<glyph unicode="&#xfb04;" horiz-adv-x="2170" d="M29 1004v286h186v37q0 416 416 416h143v-287h-121q-131 0 -131 -131v-35h430v37q0 416 416 416h143v-287h-120q-131 0 -131 -131v-35h276v-286h-276v-1004h-308v1004h-430v-1004h-307v1004h-186zM1710 0v1718h307v-1718h-307z" />
<glyph horiz-adv-x="0" />
<glyph horiz-adv-x="682" />
<glyph unicode=" "  horiz-adv-x="512" />
<glyph unicode="&#x09;" horiz-adv-x="512" />
<glyph unicode="&#xa0;" horiz-adv-x="512" />
<glyph unicode="!" horiz-adv-x="737" d="M215 0v307h307v-307h-307zM215 496v1116h307v-1116h-307z" />
<glyph unicode="&#x22;" horiz-adv-x="901" d="M90 1718h303l-45 -600h-213zM508 1718h303l-45 -600h-213z" />
<glyph unicode="#" horiz-adv-x="1269" d="M82 528v144h217l78 387h-295v143h324l79 397h144l-80 -397h340l80 397h143l-80 -397h156v-143h-184l-78 -387h262v-144h-291l-100 -505h-144l101 505h-340l-101 -505h-143l100 505h-188zM442 672h340l78 387h-340z" />
<glyph unicode="$" horiz-adv-x="1269" d="M70 268l192 201q73 -89 171 -138.5t198 -49.5q117 0 182.5 49.5t65.5 138.5q0 54 -22 89.5t-73 64.5q-53 29 -127 53q-303 85 -429 193.5t-126 285.5q0 170 118 288t321 152v146h223v-148q213 -31 369 -180l-197 -217q-126 135 -289 135q-92 0 -154.5 -51t-62.5 -125 q0 -81 92 -129q29 -17 63 -29.5t146 -46.5q261 -82 368 -191t107 -292q0 -114 -56 -210t-159 -159q-93 -56 -227 -80v-192h-223v188q-136 15 -260 82t-211 172z" />
<glyph unicode="%" horiz-adv-x="2007" d="M106 1194q0 212 114.5 332.5t314.5 120.5q197 0 310 -121t113 -332q0 -212 -114 -333.5t-312 -121.5q-199 0 -312.5 121.5t-113.5 333.5zM324 47l1255 1593l104 -86l-1255 -1593zM387 1192q0 -108 38.5 -166.5t109.5 -58.5q68 0 105.5 59t37.5 166q0 227 -146 227 q-145 0 -145 -227zM1049 428q0 212 114 332.5t314 120.5q197 0 310.5 -121t113.5 -332q0 -212 -114 -333.5t-312 -121.5q-199 0 -312.5 121.5t-113.5 333.5zM1329 426q0 -108 38.5 -166.5t109.5 -58.5q68 0 105.5 59t37.5 166q0 227 -145 227q-146 0 -146 -227z" />
<glyph unicode="&#x26;" horiz-adv-x="1515" d="M98 395q0 130 69.5 244.5t215.5 224.5q-108 119 -152.5 204.5t-44.5 172.5q0 187 126 299.5t335 112.5q211 0 335 -105t124 -282q0 -104 -59 -193t-238 -252l229 -241q42 46 89.5 113t76.5 118l244 -180q-124 -182 -186 -250l219 -205l-197 -219l-201 207 q-121 -114 -230.5 -160.5t-252.5 -46.5q-223 0 -362.5 121.5t-139.5 316.5zM406 395q0 -75 53 -121.5t139 -46.5q150 0 262 121l-297 320q-157 -127 -157 -273zM494 1237q0 -57 27.5 -104t99.5 -115q178 138 178 239q0 60 -40.5 94.5t-111.5 34.5q-69 0 -111 -41t-42 -108z " />
<glyph unicode="'" horiz-adv-x="491" d="M98 1718h303l-45 -600h-213z" />
<glyph unicode="(" horiz-adv-x="819" d="M209 698q0 265 92.5 543t247.5 481l174 -90q-248 -458 -248 -934q0 -234 64.5 -477t183.5 -457l-174 -90q-76 102 -124 190t-93 210q-123 321 -123 624z" />
<glyph unicode=")" horiz-adv-x="819" d="M96 -236q248 458 248 932q0 235 -64 477.5t-184 458.5l174 90q76 -103 124 -190.5t93 -208.5q123 -321 123 -625q0 -265 -92 -542.5t-248 -481.5z" />
<glyph unicode="*" horiz-adv-x="901" d="M61 1161l267 86l-267 86l107 193l211 -164l-41 250h225l-41 -250l211 164l107 -193l-267 -86l267 -86l-107 -192l-211 164l41 -250h-225l41 250l-211 -164z" />
<glyph unicode="+" d="M109 702v152h512v512h151v-512h512v-152h-512v-512h-151v512h-512z" />
<glyph unicode="," horiz-adv-x="655" d="M141 -334l156 334h-143v348h348v-348l-156 -334h-205z" />
<glyph unicode="-" horiz-adv-x="778" d="M121 532v293h538v-293h-538z" />
<glyph unicode="." horiz-adv-x="655" d="M154 0v348h348v-348h-348z" />
<glyph unicode="/" horiz-adv-x="1024" d="M63 -272l764 1994l134 -53l-764 -1995z" />
<glyph unicode="0" horiz-adv-x="1269" d="M59 803q0 410 148.5 626t431.5 216q277 0 424 -217.5t147 -624.5t-147.5 -621.5t-427.5 -214.5t-428 214.5t-148 621.5zM387 805q0 -553 248 -553t248 553t-250 553q-246 0 -246 -553z" />
<glyph unicode="1" horiz-adv-x="1269" d="M309 1325v287h535v-1612h-307v1325h-228z" />
<glyph unicode="2" horiz-adv-x="1269" d="M90 1333q76 149 209 230.5t299 81.5q239 0 391 -127.5t152 -327.5q0 -115 -74 -224t-272 -286l-95 -84q-176 -156 -249 -309h702v-287h-1044v272q38 116 139 253t225 243l107 92q136 118 184.5 184t48.5 134q0 79 -59.5 129.5t-153.5 50.5q-95 0 -168 -50.5t-113 -144.5z " />
<glyph unicode="3" horiz-adv-x="1269" d="M49 258l207 191q125 -193 342 -193q115 0 190.5 60t75.5 151q0 104 -95 158.5t-277 54.5h-119v287h123q325 0 325 213q0 83 -62.5 134.5t-162.5 51.5q-90 0 -164.5 -50.5t-118.5 -141.5l-243 149q161 330 540 330q244 0 391.5 -126.5t147.5 -334.5q0 -276 -270 -361 q146 -32 229.5 -134t83.5 -248q0 -224 -157 -353t-429 -129q-192 0 -324.5 69.5t-232.5 221.5z" />
<glyph unicode="4" horiz-adv-x="1269" d="M51 332v280l559 1000h430v-1000h193v-280h-193v-332h-307v332h-682zM387 612h346v654z" />
<glyph unicode="5" horiz-adv-x="1269" d="M100 266l219 174q46 -95 120 -145.5t167 -50.5q120 0 189 71t69 195q0 114 -69 186t-177 72q-150 0 -223 -109l-274 66v887h977v-287h-670v-338q101 68 244 68q232 0 376 -146.5t144 -382.5q0 -258 -161.5 -413.5t-428.5 -155.5q-179 0 -301 75t-201 234z" />
<glyph unicode="6" horiz-adv-x="1269" d="M72 772q0 419 161.5 650t456.5 231q148 0 267 -66t194 -190l-227 -187q-47 84 -100 120t-130 36q-135 0 -217.5 -115t-85.5 -307q46 59 125 93t168 34q227 0 372.5 -152.5t145.5 -390.5q0 -257 -152.5 -413t-402.5 -156q-283 0 -429 206t-146 607zM414 526 q0 -129 63 -204.5t172 -75.5q103 0 164 75.5t61 204.5q0 122 -62 196.5t-165 74.5t-168 -75.5t-65 -195.5z" />
<glyph unicode="7" horiz-adv-x="1269" d="M96 1325v287h1053v-215q-146 -362 -250.5 -683t-204.5 -714h-332q179 658 435 1325h-701z" />
<glyph unicode="8" horiz-adv-x="1269" d="M59 420q0 293 254 401q-100 54 -154.5 153.5t-54.5 227.5q0 198 149 324.5t382 126.5t381.5 -126.5t148.5 -324.5q0 -127 -54.5 -226t-154.5 -155q254 -109 254 -403q0 -204 -160.5 -332.5t-414.5 -128.5q-255 0 -415.5 129t-160.5 334zM387 442q0 -88 69 -143t179 -55 q109 0 178.5 55t69.5 143q0 200 -248 244q-122 -20 -185 -82t-63 -162zM428 1182q0 -87 48 -137t159 -78q110 26 158.5 77t48.5 142q0 79 -58 129.5t-149 50.5q-93 0 -150 -50.5t-57 -133.5z" />
<glyph unicode="9" horiz-adv-x="1269" d="M68 1083q0 257 152.5 413.5t402.5 156.5q283 0 429 -207t146 -606q0 -419 -162.5 -650t-457.5 -231q-146 0 -266 66.5t-193 189.5l227 186q46 -83 99 -119t130 -36q135 0 218 114.5t86 307.5q-47 -60 -125.5 -93.5t-169.5 -33.5q-227 0 -371.5 152t-144.5 390zM395 1085 q0 -122 62.5 -196t165.5 -74t168 75t65 193q0 131 -63 207t-172 76q-103 0 -164.5 -76.5t-61.5 -204.5z" />
<glyph unicode=":" horiz-adv-x="655" d="M154 0v348h348v-348h-348zM154 942v348h348v-348h-348z" />
<glyph unicode=";" horiz-adv-x="655" d="M141 -334l156 334h-143v348h348v-348l-156 -334h-205zM154 942v348h348v-348h-348z" />
<glyph unicode="&#x3c;" d="M109 719v119l1175 514v-160l-985 -414l985 -413v-160z" />
<glyph unicode="=" d="M109 498v151h1175v-151h-1175zM109 907v152h1175v-152h-1175z" />
<glyph unicode="&#x3e;" d="M109 205v160l985 413l-985 414v160l1175 -514v-119z" />
<glyph unicode="?" horiz-adv-x="1228" d="M70 1442q228 203 512 203q153 0 277.5 -61t194.5 -169t70 -241q0 -156 -94 -263.5t-303 -189.5v-225h-307v424q182 31 279.5 97.5t97.5 160.5q0 81 -58.5 130.5t-154.5 49.5q-188 0 -314 -129zM420 0v307h307v-307h-307z" />
<glyph unicode="@" horiz-adv-x="1843" d="M94 782q0 179 67 339t181.5 275t274.5 182t339 67q171 0 318.5 -54.5t251 -150.5t162.5 -232.5t59 -294.5q0 -249 -121 -414t-301 -165q-149 0 -203 119q-89 -154 -270 -154q-166 0 -268.5 134.5t-102.5 352.5q0 154 57 283t156.5 203t218.5 74q72 0 132 -28t94 -77 l14 47h166l-27 -667q-2 -54 13 -76.5t53 -22.5q82 0 140 114.5t58 274.5q0 256 -165.5 414t-432.5 158q-135 0 -256 -54.5t-207.5 -147.5t-137 -222.5t-50.5 -274.5q0 -289 178 -464t473 -175q332 0 537 158l86 -156q-142 -94 -294.5 -137t-338.5 -43q-189 0 -348 59 t-270.5 165.5t-173.5 258t-62 332.5zM745 788q0 -110 39.5 -174.5t106.5 -64.5q72 0 119 91.5t47 233.5q0 123 -33.5 179.5t-105.5 56.5q-78 0 -125.5 -87.5t-47.5 -234.5z" />
<glyph unicode="A" horiz-adv-x="1515" d="M33 0l522 1612h406l522 -1612h-332l-98 326h-590l-98 -326h-332zM555 612h406l-203 703z" />
<glyph unicode="B" horiz-adv-x="1433" d="M174 0v1612h627q204 0 342.5 -130.5t138.5 -322.5q0 -117 -67 -207.5t-177 -124.5q151 -26 237.5 -123t86.5 -241q0 -209 -132 -336t-349 -127h-707zM481 287h379q72 0 123 54t51 132q0 79 -51 135t-123 56h-379v-377zM481 948h299q71 0 121.5 56t50.5 135q0 76 -52 131 t-124 55h-295v-377z" />
<glyph unicode="C" horiz-adv-x="1474" d="M78 805q0 237 94.5 429.5t262 301.5t374.5 109q204 0 358.5 -100t249.5 -294l-262 -153q-57 125 -147.5 192.5t-202.5 67.5q-168 0 -283.5 -160.5t-115.5 -392.5q0 -152 53 -278.5t144.5 -199.5t201.5 -73q227 0 356 264l256 -158q-100 -200 -251 -296.5t-363 -96.5 q-210 0 -375.5 106.5t-257.5 297.5t-92 434z" />
<glyph unicode="D" horiz-adv-x="1495" d="M174 0v1612h526q156 0 291 -60.5t231 -166.5t150.5 -255.5t54.5 -322.5q0 -177 -53.5 -327t-148.5 -255.5t-230.5 -165t-294.5 -59.5h-526zM481 287h219q178 0 289 144t111 376q0 230 -111 374t-289 144h-219v-1038z" />
<glyph unicode="E" horiz-adv-x="1249" d="M160 0v1612h985v-287h-678v-338h602v-287h-602v-413h678v-287h-985z" />
<glyph unicode="F" horiz-adv-x="1167" d="M156 0v1612h962v-287h-655v-395h561v-287h-561v-643h-307z" />
<glyph unicode="G" horiz-adv-x="1576" d="M78 803q0 174 56.5 330t153.5 268t232 178t285 66q195 0 354 -103t258 -291l-262 -153q-57 125 -148 192.5t-204 67.5q-111 0 -202 -72t-143 -199t-52 -282q0 -157 55.5 -283t155 -197t223.5 -71q189 0 299 119v209h-314v286h611v-651q-241 -250 -598 -250 q-219 0 -392.5 107t-270.5 297.5t-97 431.5z" />
<glyph unicode="H" horiz-adv-x="1474" d="M143 0v1612h308v-629h573v629h307v-1612h-307v696h-573v-696h-308z" />
<glyph unicode="I" horiz-adv-x="655" d="M174 0v1612h307v-1612h-307z" />
<glyph unicode="J" horiz-adv-x="983" d="M-66 160l177 205q54 -62 100.5 -86.5t107.5 -24.5q110 0 158.5 66.5t48.5 220.5v1071h308v-1073q0 -275 -133.5 -423.5t-381.5 -148.5q-229 0 -385 193z" />
<glyph unicode="K" horiz-adv-x="1433" d="M154 0v1612h307v-660l524 660h385l-553 -694l615 -918h-394l-434 694l-143 -172v-522h-307z" />
<glyph unicode="L" horiz-adv-x="1064" d="M143 0v1612h308v-1325h614v-287h-922z" />
<glyph unicode="M" horiz-adv-x="1740" d="M143 0v1612h342l385 -561l385 561h342v-1612h-307v1153l-420 -612l-419 612v-1153h-308z" />
<glyph unicode="N" horiz-adv-x="1474" d="M143 0v1612h308l573 -987v987h307v-1612h-307l-573 1034v-1034h-308z" />
<glyph unicode="O" horiz-adv-x="1556" d="M78 805q0 250 87 440.5t247 295t370 104.5q206 0 364.5 -105t245.5 -296.5t87 -438.5q0 -248 -87 -438.5t-246.5 -295t-367.5 -104.5t-367 104.5t-246 294.5t-87 439zM406 805q0 -255 100 -403t272 -148t272.5 149t100.5 404q0 262 -98 406.5t-277 144.5 q-175 0 -272.5 -145.5t-97.5 -407.5z" />
<glyph unicode="P" horiz-adv-x="1351" d="M147 0v1612h584q155 0 282.5 -71.5t200 -196.5t72.5 -277t-72.5 -277.5t-200 -197.5t-282.5 -72h-276v-520h-308zM455 807h256q104 0 175.5 76t71.5 186q0 109 -70.5 182.5t-176.5 73.5h-256v-518z" />
<glyph unicode="Q" horiz-adv-x="1617" d="M78 805q0 249 87 439.5t246 295.5t367 105q155 0 285.5 -61t222 -170t142.5 -265.5t51 -341.5q0 -233 -90 -432l206 -142l-170 -258l-208 162q-176 -170 -441 -170q-207 0 -365.5 104.5t-245.5 295t-87 438.5zM406 805q0 -255 100.5 -403t273.5 -148q108 0 185 57 l-275 193l168 241l262 -186q31 121 31 246q0 262 -98 407.5t-275 145.5t-274.5 -145t-97.5 -408z" />
<glyph unicode="R" d="M152 0v1612h505q160 0 293 -72t209 -198t76 -277q0 -324 -246 -444l404 -621h-387l-308 520h-239v-520h-307zM459 807h198q103 0 176.5 76.5t73.5 183.5q0 105 -74 181.5t-176 76.5h-198v-518z" />
<glyph unicode="S" horiz-adv-x="1269" d="M70 240l192 213q73 -94 171 -146.5t198 -52.5q116 0 183 51.5t67 140.5q0 61 -23 101t-76 69q-34 20 -64 31t-130 43q-260 82 -373 194.5t-113 289.5q0 202 154.5 336.5t386.5 134.5q286 0 490 -201l-197 -227q-123 141 -291 141q-91 0 -153 -53t-62 -131q0 -87 94 -140 q41 -20 224 -82q243 -82 350.5 -200t107.5 -303q0 -212 -161 -347t-416 -135q-164 0 -307 70t-252 203z" />
<glyph unicode="T" horiz-adv-x="1228" d="M20 1325v287h1188v-287h-440v-1325h-307v1325h-441z" />
<glyph unicode="U" horiz-adv-x="1515" d="M150 662v950h307v-948q0 -195 79 -302.5t222 -107.5t222 107.5t79 302.5v948h307v-950q0 -332 -158.5 -513.5t-449.5 -181.5q-292 0 -450 181t-158 514z" />
<glyph unicode="V" horiz-adv-x="1331" d="M6 1612h338l322 -1217l321 1217h338l-459 -1612h-401z" />
<glyph unicode="W" horiz-adv-x="2068" d="M29 1612h338l229 -1217l268 1217h338l271 -1217l229 1217h338l-367 -1612h-401l-236 1016l-239 -1016h-402z" />
<glyph unicode="X" horiz-adv-x="1474" d="M14 0l506 815l-481 797h367l331 -563l332 563h367l-482 -797l506 -815h-379l-344 569l-344 -569h-379z" />
<glyph unicode="Y" d="M8 1612h350l338 -633l338 633h352l-536 -967v-645h-307v645z" />
<glyph unicode="Z" horiz-adv-x="1269" d="M47 0v252l721 1073h-668v287h1078v-230l-748 -1095h776v-287h-1159z" />
<glyph unicode="[" horiz-adv-x="819" d="M219 -326v2048h492v-204h-246v-1639h246v-205h-492z" />
<glyph unicode="\" horiz-adv-x="1024" d="M63 1669l134 53l764 -1994l-134 -54z" />
<glyph unicode="]" horiz-adv-x="819" d="M109 -121h245v1639h-245v204h491v-2048h-491v205z" />
<glyph unicode="^" horiz-adv-x="1064" d="M35 866l497 598l498 -598l-104 -104l-394 483l-393 -483z" />
<glyph unicode="_" horiz-adv-x="1024" d="M0 -123h1024v-123h-1024v123z" />
<glyph unicode="`" horiz-adv-x="1024" d="M231 1763h306l159 -307h-254z" />
<glyph unicode="a" horiz-adv-x="1413" d="M63 645q0 183 81 339t220 246.5t302 90.5q184 0 301 -150l41 119h266v-1290h-266l-41 117q-126 -150 -318 -150q-159 0 -294 91t-213.5 247t-78.5 340zM371 645q0 -163 87.5 -277t211.5 -114q129 0 213 109.5t84 279.5q0 171 -84 281t-215 110q-124 0 -210.5 -113 t-86.5 -276z" />
<glyph unicode="b" horiz-adv-x="1413" d="M139 0v1718h307v-547q116 150 302 150q122 0 233.5 -54t192 -144.5t128.5 -215.5t48 -262q0 -139 -46.5 -264.5t-126 -216t-189 -144t-230.5 -53.5q-186 0 -312 150l-40 -117h-267zM446 645q0 -172 83.5 -281.5t213.5 -109.5q124 0 211.5 114t87.5 275q0 164 -86.5 277.5 t-212.5 113.5q-129 0 -213 -110t-84 -279z" />
<glyph unicode="c" horiz-adv-x="1228" d="M68 645q0 137 48 262.5t129.5 216t193.5 144t235 53.5q152 0 280 -76t222 -221l-265 -158q-53 77 -110 113.5t-127 36.5q-124 0 -211.5 -108.5t-87.5 -262.5t87.5 -262.5t211.5 -108.5q143 0 237 148l265 -156q-94 -146 -222.5 -222.5t-279.5 -76.5q-165 0 -304.5 90.5 t-220.5 246.5t-81 341z" />
<glyph unicode="d" horiz-adv-x="1413" d="M63 645q0 183 81 339t220 246.5t302 90.5q184 0 301 -150v547h307v-1718h-266l-41 117q-126 -150 -318 -150q-159 0 -294 91t-213.5 247t-78.5 340zM371 645q0 -163 87.5 -277t211.5 -114q129 0 213 109.5t84 279.5q0 171 -84 281t-215 110q-124 0 -210.5 -113 t-86.5 -276z" />
<glyph unicode="e" horiz-adv-x="1331" d="M59 643q0 190 78.5 346t215 245t302.5 89q122 0 232.5 -53t190 -143.5t126.5 -215t47 -262.5q0 -45 -6 -94h-846q15 -136 97.5 -215.5t208.5 -79.5q136 0 249 150l267 -154q-109 -149 -236 -219t-289 -70q-183 0 -328.5 86.5t-227 241t-81.5 348.5zM406 817h499 q-23 115 -86.5 174.5t-161.5 59.5q-94 0 -160 -62t-91 -172z" />
<glyph unicode="f" horiz-adv-x="819" d="M29 1004v286h186v37q0 416 416 416h143v-287h-121q-131 0 -131 -131v-35h277v-286h-277v-1004h-307v1004h-186z" />
<glyph unicode="g" horiz-adv-x="1413" d="M94 729q0 259 157 425.5t402 166.5q100 0 184.5 -32t133.5 -89l26 90h267v-964q0 -313 -157 -492.5t-431 -179.5q-338 0 -537 278l223 177q124 -168 295 -168q265 0 289 387q-96 -170 -307 -170q-238 0 -391.5 161t-153.5 410zM399 739q0 -124 81 -209.5t198 -85.5 q115 0 196.5 87t81.5 210q0 125 -80 209t-200 84q-118 0 -197.5 -84.5t-79.5 -210.5z" />
<glyph unicode="h" d="M131 0v1718h307v-540q49 67 132.5 105t181.5 38q223 0 366.5 -158.5t143.5 -404.5v-758h-308v758q0 120 -70 198t-177 78q-109 0 -189 -82t-80 -194v-758h-307z" />
<glyph unicode="i" horiz-adv-x="614" d="M154 0v1290h307v-1290h-307zM154 1411v307h307v-307h-307z" />
<glyph unicode="j" horiz-adv-x="696" d="M-137 -207l182 199q43 -49 102 -49q38 0 63.5 23t25.5 57v1267h307v-1239q0 -113 -15 -168q-28 -106 -116 -167.5t-211 -61.5q-102 0 -179 32t-159 107zM236 1411v307h307v-307h-307z" />
<glyph unicode="k" horiz-adv-x="1351" d="M152 0v1718h307v-895l436 467h434l-606 -606l686 -684h-434l-516 547v-547h-307z" />
<glyph unicode="l" horiz-adv-x="614" d="M154 0v1718h307v-1718h-307z" />
<glyph unicode="m" horiz-adv-x="1945" d="M139 0v1290h246l61 -119q40 67 119 108.5t168 41.5q200 0 299 -184q62 89 153.5 136.5t203.5 47.5q198 0 307.5 -148t109.5 -415v-758h-307v758q0 120 -46 189t-128 69q-91 0 -145 -70.5t-54 -187.5v-758h-307v758q0 119 -46.5 188.5t-125.5 69.5q-83 0 -142 -75.5 t-59 -182.5v-758h-307z" />
<glyph unicode="n" d="M131 0v1290h266l41 -112q49 67 132.5 105t181.5 38q223 0 366.5 -158.5t143.5 -404.5v-758h-308v758q0 120 -70 198t-177 78q-109 0 -189 -82t-80 -194v-758h-307z" />
<glyph unicode="o" horiz-adv-x="1351" d="M72 645q0 194 77.5 348.5t216 241t312.5 86.5q172 0 309.5 -87t215 -241.5t77.5 -347.5q0 -194 -77.5 -349t-215.5 -242t-311 -87t-311 87t-215.5 242t-77.5 349zM377 643q0 -158 85 -263.5t214 -105.5t214 105.5t85 265.5t-85.5 265.5t-215.5 105.5q-127 0 -212 -106.5 t-85 -266.5z" />
<glyph unicode="p" horiz-adv-x="1413" d="M139 -326v1616h267l40 -119q116 150 302 150q122 0 233.5 -54t192.5 -145t128.5 -216.5t47.5 -262.5q0 -138 -46.5 -263.5t-125 -215.5t-188 -143.5t-230.5 -53.5q-178 0 -314 133v-426h-307zM446 645q0 -172 83.5 -281.5t213.5 -109.5q124 0 211.5 114t87.5 275 q0 164 -86.5 277.5t-212.5 113.5q-129 0 -213 -110t-84 -279z" />
<glyph unicode="q" horiz-adv-x="1413" d="M63 643q0 183 81 339.5t220 247.5t302 91q184 0 301 -150l41 119h266v-1616h-307v426q-136 -133 -316 -133q-160 0 -295.5 90t-214 246t-78.5 340zM371 645q0 -163 87.5 -277t211.5 -114q129 0 213 109.5t84 279.5q0 171 -84 281t-215 110q-124 0 -210.5 -113t-86.5 -276 z" />
<glyph unicode="r" horiz-adv-x="839" d="M158 0v1290h245l29 -119q62 72 159 111t216 39v-287q-109 -7 -176 -40t-113 -101q-53 -80 -53 -186v-707h-307z" />
<glyph unicode="s" horiz-adv-x="1146" d="M49 227l207 197q119 -170 322 -170q85 0 130.5 30t45.5 85q0 51 -47.5 83.5t-192.5 82.5q-128 43 -179 65.5t-93 54.5q-140 98 -140 273q0 169 134.5 281t336.5 112q252 0 459 -184l-201 -232q-129 129 -258 129q-65 0 -104 -28.5t-39 -77.5q0 -44 31 -72.5t100 -48.5 q212 -58 316 -115q204 -116 204 -321q0 -181 -140.5 -292.5t-367.5 -111.5q-342 0 -524 260z" />
<glyph unicode="t" horiz-adv-x="993" d="M35 1004v286h221v283h307v-283h346v-286h-346v-656q0 -43 24.5 -68.5t67.5 -25.5q44 0 77.5 27.5t64.5 87.5l245 -142q-87 -143 -180.5 -201.5t-240.5 -58.5q-126 0 -222 60t-125 157q-18 67 -18 181v639h-221z" />
<glyph unicode="u" d="M131 532v758h307v-758q0 -120 70.5 -198t177.5 -78q109 0 188.5 82t79.5 194v758h308v-1290h-267l-41 113q-51 -68 -133 -106t-180 -38q-223 0 -366.5 158.5t-143.5 404.5z" />
<glyph unicode="v" horiz-adv-x="1228" d="M12 1290h350l252 -862l252 862h351l-433 -1290h-340z" />
<glyph unicode="w" horiz-adv-x="1843" d="M33 1290h327l201 -841l232 841h258l231 -841l201 841h327l-350 -1290h-340l-198 692l-199 -692h-340z" />
<glyph unicode="x" horiz-adv-x="1228" d="M14 0l408 655l-385 635h364l213 -405l213 405h365l-385 -635l407 -655h-364l-236 408l-235 -408h-365z" />
<glyph unicode="y" horiz-adv-x="1269" d="M45 1290h322l278 -813l281 813h321l-467 -1364q-43 -126 -140 -199t-222 -73q-175 0 -299 139l186 197q41 -49 94 -49q31 0 55.5 20.5t34.5 56.5l9 27z" />
<glyph unicode="z" horiz-adv-x="1064" d="M45 0v287l543 717h-510v286h889v-266l-564 -737h611v-287h-969z" />
<glyph unicode="{" horiz-adv-x="819" d="M123 608v180q98 7 133 39.5t35 114.5v598q0 182 182 182h258v-204h-143q-51 0 -51 -52v-526q0 -99 -25.5 -151.5t-91.5 -90.5q68 -41 92.5 -91.5t24.5 -149.5v-527q0 -51 51 -51h143v-205h-258q-182 0 -182 183v598q0 81 -34.5 112.5t-133.5 40.5z" />
<glyph unicode="|" horiz-adv-x="491" d="M168 -326v2048h156v-2048h-156z" />
<glyph unicode="}" horiz-adv-x="819" d="M88 -121h143q52 0 52 51v527q0 100 24.5 150.5t91.5 90.5q-68 41 -92 91.5t-24 150.5v526q0 52 -52 52h-143v204h258q182 0 182 -182v-598q0 -82 35 -114.5t133 -39.5v-180q-99 -9 -133.5 -40.5t-34.5 -112.5v-598q0 -183 -182 -183h-258v205z" />
<glyph unicode="~" d="M72 717q46 113 139 179.5t207 66.5q120 0 330 -123q151 -86 225 -86q75 0 129.5 44t105.5 146l113 -104q-46 -114 -139 -180t-209 -66q-63 0 -137 28t-191 95q-155 86 -225 86q-73 0 -129 -45.5t-107 -145.5z" />
<glyph unicode="&#xa1;" horiz-adv-x="737" d="M215 0v1116h307v-1116h-307zM215 1305v307h307v-307h-307z" />
<glyph unicode="&#xa2;" horiz-adv-x="1269" d="M78 809q0 147 54.5 280t154.5 230q63 62 128.5 97t157.5 57v139h211v-137q122 -23 226 -97.5t176 -189.5l-264 -158q-103 150 -238 150q-124 0 -211.5 -108.5t-87.5 -262.5t87.5 -262.5t211.5 -108.5q144 0 238 148l264 -156q-70 -115 -176 -191t-226 -98v-141h-211v143 q-224 54 -359.5 236t-135.5 430z" />
<glyph unicode="&#xa3;" horiz-adv-x="1269" d="M98 707v286h207v97q0 253 138 404t370 151q131 0 228 -40.5t180 -129.5l-183 -228q-41 61 -84 86t-106 25q-217 0 -217 -301v-64h407v-286h-407v-60q0 -123 -32.5 -216t-92.5 -144h684v-287h-1088v287q203 79 203 342v78h-207z" />
<glyph unicode="&#xa4;" horiz-adv-x="2048" d="M283 -240v1923h1511v-1923h-1511zM385 -23l592 756l-592 756v-1512zM432 -129h1221l-611 784zM444 1579l596 -764l598 764h-1194zM1108 735l582 -745v1493z" />
<glyph unicode="&#xa5;" horiz-adv-x="1269" d="M41 1612h340l254 -576l254 576h340l-350 -703h280v-184h-371v-168h371v-184h-371v-373h-307v373h-370v184h370v168h-370v184h280z" />
<glyph unicode="&#xa6;" horiz-adv-x="491" d="M168 -326v881h156v-881h-156zM168 842v880h156v-880h-156z" />
<glyph unicode="&#xa7;" d="M152 666q0 106 53.5 186.5t150.5 118.5q-143 91 -143 274t134 291.5t358 108.5q155 0 273.5 -50.5t227.5 -162.5l-198 -203q-50 68 -134 110.5t-169 42.5q-78 0 -125.5 -33.5t-47.5 -88.5q0 -75 78 -115q52 -25 164 -58l64 -18q104 -31 168 -61t118 -72q63 -51 98 -117.5 t35 -136.5q0 -106 -45.5 -185.5t-132.5 -123.5q75 -46 109.5 -111t34.5 -162q0 -187 -142 -306.5t-364 -119.5q-173 0 -318 62t-237 176l170 203q156 -172 366 -172q88 0 139.5 32t51.5 86q0 77 -96 125q-37 21 -168 68l-117 41q-169 60 -242 119q-114 92 -114 252zM453 715 q0 -57 45 -90t192 -84l53 -19q27 -9 48 -14l57 -16q110 15 110 122q0 68 -66 114t-235 95l-63 19q-141 -18 -141 -127z" />
<glyph unicode="&#xa8;" horiz-adv-x="1024" d="M172 1456v258h258v-258h-258zM594 1456v258h258v-258h-258z" />
<glyph unicode="&#xa9;" horiz-adv-x="1884" d="M100 803q0 168 68 323.5t181.5 268t270 180t326.5 67.5q167 0 321.5 -68t267.5 -181.5t181 -269.5t68 -324q0 -167 -68 -322.5t-181 -268.5t-269 -181t-324 -68q-169 0 -324.5 68t-269 181.5t-181 269.5t-67.5 325zM203 799q0 -148 59.5 -284t159.5 -235.5t237 -159 t285 -59.5q147 0 283 59.5t235.5 159.5t159 237.5t59.5 285.5q0 197 -100.5 367t-272 270t-370.5 100q-146 0 -282 -60t-235 -160t-158.5 -237t-59.5 -284zM432 805q0 168 68 305t187.5 215t264.5 78q297 0 441 -289l-201 -119q-84 187 -240 187q-115 0 -192.5 -109 t-77.5 -270q0 -157 78 -265t192 -108q155 0 244 188l197 -120q-75 -149 -182.5 -219t-260.5 -70q-227 0 -372.5 167.5t-145.5 428.5z" />
<glyph unicode="&#xaa;" horiz-adv-x="983" d="M88 1237q0 170 109 293t260 123q116 0 178 -78l20 59h179v-794h-179l-20 61q-67 -80 -186 -80q-148 0 -254.5 123t-106.5 293zM293 1237q0 -95 48.5 -159t119.5 -64q75 0 121.5 61.5t46.5 161.5q0 98 -47 160.5t-121 62.5q-72 0 -120 -64t-48 -159z" />
<glyph unicode="&#xab;" horiz-adv-x="1269" d="M98 698l277 512h307l-276 -512l276 -512h-307zM590 698l276 512h308l-277 -512l277 -512h-308z" />
<glyph unicode="&#xac;" d="M82 840v151h1194v-704h-152v553h-1042z" />
<glyph unicode="&#xad;" horiz-adv-x="778" d="M121 532v293h538v-293h-538z" />
<glyph unicode="&#xae;" horiz-adv-x="1884" d="M100 803q0 168 68 323.5t181.5 268t270 180t326.5 67.5q167 0 321.5 -68t267.5 -181.5t181 -269.5t68 -324q0 -167 -68 -322.5t-181 -268.5t-269 -181t-324 -68q-169 0 -324.5 68t-269 181.5t-181 269.5t-67.5 325zM203 799q0 -148 59.5 -284t159.5 -235.5t237 -159 t285 -59.5q251 0 465 170h-242l-215 365h-151v-365h-236v1149h365q173 0 293 -114.5t120 -278.5q0 -114 -42.5 -194.5t-124.5 -120.5l268 -410q237 228 237 539q0 197 -100.5 367.5t-271.5 271t-369 100.5q-197 0 -367 -100.5t-270 -271.5t-100 -369zM801 817h129 q68 0 116 50t48 122q0 70 -48 120t-116 50h-129v-342z" />
<glyph unicode="&#xaf;" horiz-adv-x="1024" d="M184 1456v225h656v-225h-656z" />
<glyph unicode="&#xb0;" horiz-adv-x="819" d="M90 1327q0 130 95 224t227 94q129 0 223 -95.5t94 -224.5q0 -131 -94.5 -225t-226.5 -94q-129 0 -223.5 94.5t-94.5 226.5zM238 1325q0 -71 51 -121.5t121 -50.5t121 50.5t51 121.5t-51 121.5t-121 50.5t-121 -50.5t-51 -121.5z" />
<glyph unicode="&#xb1;" d="M109 98v152h1175v-152h-1175zM109 860v152h512v512h151v-512h512v-152h-512v-512h-151v512h-512z" />
<glyph unicode="&#xb2;" horiz-adv-x="901" d="M92 1444q51 98 142 150.5t212 52.5q152 0 247 -75.5t95 -197.5q0 -82 -52 -146.5t-169 -125.5l-35 -19q-105 -58 -151 -116h420v-211h-695v211q118 156 287 256l35 20q111 64 111 121q0 33 -31 55.5t-76 22.5q-47 0 -86 -27.5t-61 -75.5z" />
<glyph unicode="&#xb3;" horiz-adv-x="901" d="M80 905l153 131q46 -54 86.5 -77t90.5 -23q51 0 84.5 26t33.5 66q0 38 -42.5 65t-102.5 27h-92v174h90q63 0 99 20.5t36 57.5q0 35 -28 56.5t-74 21.5q-93 0 -162 -84l-154 127q53 74 138.5 114t189.5 40q152 0 253 -70t101 -176q0 -83 -49 -133t-143 -62 q211 -43 211 -202q0 -117 -107 -191t-276 -74q-105 0 -193 43.5t-143 122.5z" />
<glyph unicode="&#xb4;" horiz-adv-x="1024" d="M328 1456l159 307h306l-211 -307h-254z" />
<glyph unicode="&#xb5;" d="M131 -326v1616h307v-758q0 -120 70.5 -198t177.5 -78q109 0 188.5 82t79.5 194v758h308v-1290h-267l-41 113q-104 -144 -290 -144q-72 0 -131.5 26t-94.5 73v-394h-307z" />
<glyph unicode="&#xb6;" d="M98 1169q0 186 124.5 314.5t305.5 128.5h744v-205h-129v-1407h-205v1407h-164v-1407h-205v737h-41q-192 0 -311 120t-119 312z" />
<glyph unicode="&#xb7;" horiz-adv-x="655" d="M143 539v368h369v-368h-369z" />
<glyph unicode="&#xb8;" horiz-adv-x="1024" d="M256 -393q142 0 204 22t62 72q0 46 -47 64.5t-168 19.5v92l88 178h201l-74 -147q128 -8 196 -61.5t68 -147.5q0 -121 -129 -179.5t-401 -60.5v148z" />
<glyph unicode="&#xb9;" horiz-adv-x="901" d="M184 1401v225h432v-874h-245v649h-187z" />
<glyph unicode="&#xba;" horiz-adv-x="983" d="M119 1237q0 178 107 296t268 118q160 0 265 -118.5t105 -297.5q0 -180 -106 -298t-266 -118q-161 0 -267 118.5t-106 299.5zM322 1235q0 -92 48.5 -151.5t123.5 -59.5q72 0 120 59.5t48 149.5q0 94 -49 154.5t-124 60.5q-72 0 -119.5 -61t-47.5 -152z" />
<glyph unicode="&#xbb;" horiz-adv-x="1269" d="M96 186l277 512l-277 512h307l277 -512l-277 -512h-307zM588 186l276 512l-276 512h307l276 -512l-276 -512h-307z" />
<glyph unicode="&#xbc;" horiz-adv-x="2007" d="M184 1401v225h432v-874h-245v649h-187zM303 47l1256 1593l104 -86l-1255 -1593zM1044 147v197l394 514h288v-520h150v-197h-150v-168h-225v174h-457zM1280 338h223v319z" />
<glyph unicode="&#xbd;" horiz-adv-x="2007" d="M164 1401v225h432v-874h-246v649h-186zM221 47l1256 1593l104 -86l-1255 -1593zM1153 674q51 98 142 150.5t212 52.5q152 0 247 -75.5t95 -197.5q0 -82 -52 -146.5t-169 -125.5l-35 -19q-105 -58 -151 -116h420v-211h-695v211q118 156 287 256l35 20q110 63 110 121 q0 33 -30.5 55.5t-75.5 22.5q-47 0 -86 -27.5t-61 -75.5z" />
<glyph unicode="&#xbe;" horiz-adv-x="2007" d="M121 905l153 131q46 -54 86.5 -77t90.5 -23q51 0 84.5 26t33.5 66q0 38 -42.5 65t-102.5 27h-92v174h90q63 0 99 20.5t36 57.5q0 35 -28 56.5t-74 21.5q-93 0 -162 -84l-154 127q53 74 138.5 114t189.5 40q152 0 253 -70t101 -176q0 -83 -49 -133t-143 -62 q211 -43 211 -202q0 -117 -107 -191t-276 -74q-105 0 -193 43.5t-143 122.5zM344 47l1255 1593l105 -86l-1255 -1593zM1044 147v197l394 514h288v-520h150v-197h-150v-168h-225v174h-457zM1280 338h223v319z" />
<glyph unicode="&#xbf;" horiz-adv-x="1228" d="M104 438q0 157 94.5 264t303.5 189v225h307v-424q-184 -32 -280.5 -98t-96.5 -160q0 -82 58.5 -131t156.5 -49q185 0 311 129l201 -213q-228 -203 -512 -203q-233 0 -388 134.5t-155 336.5zM502 1305v307h307v-307h-307z" />
<glyph unicode="&#xc0;" horiz-adv-x="1515" d="M33 0l522 1612h406l522 -1612h-332l-98 326h-590l-98 -326h-332zM477 2085h305l160 -307h-254zM555 612h406l-203 703z" />
<glyph unicode="&#xc1;" horiz-adv-x="1515" d="M33 0l522 1612h406l522 -1612h-332l-98 326h-590l-98 -326h-332zM555 612h406l-203 703zM573 1778l160 307h305l-211 -307h-254z" />
<glyph unicode="&#xc2;" horiz-adv-x="1515" d="M33 0l522 1612h406l522 -1612h-332l-98 326h-590l-98 -326h-332zM408 1778l206 307h287l207 -307h-256l-94 143l-94 -143h-256zM555 612h406l-203 703z" />
<glyph unicode="&#xc3;" horiz-adv-x="1515" d="M33 0l522 1612h406l522 -1612h-332l-98 326h-590l-98 -326h-332zM377 1898q52 68 115.5 106t128.5 38q73 0 161 -49q54 -29 105 -29q76 0 133 72l119 -133q-51 -69 -114.5 -106.5t-129.5 -37.5q-40 0 -73.5 10t-88.5 39q-57 29 -106 29q-74 0 -131 -72zM555 612h406 l-203 703z" />
<glyph unicode="&#xc4;" horiz-adv-x="1515" d="M33 0l522 1612h406l522 -1612h-332l-98 326h-590l-98 -326h-332zM418 1778v258h258v-258h-258zM555 612h406l-203 703zM840 1778v258h258v-258h-258z" />
<glyph unicode="&#xc5;" horiz-adv-x="1515" d="M33 0l522 1612h406l522 -1612h-332l-98 326h-590l-98 -326h-332zM539 1972q0 88 64 151.5t153 63.5t153 -64t64 -153t-64 -153t-153 -64t-153 64t-64 155zM555 612h406l-203 703zM631 1968q0 -51 36.5 -87t90.5 -36q51 0 87 36.5t36 88.5t-36.5 88.5t-88.5 36.5 q-53 0 -89 -36.5t-36 -90.5z" />
<glyph unicode="&#xc6;" horiz-adv-x="1925" d="M29 0l589 1612h1209v-287h-701l52 -338h573v-287h-528l59 -413h545v-287h-826l-47 326h-471l-123 -326h-331zM584 612h327l-86 713z" />
<glyph unicode="&#xc7;" horiz-adv-x="1474" d="M78 803q0 178 55.5 334.5t152 268t232.5 175.5t291 64q204 0 358.5 -100t249.5 -294l-262 -153q-57 125 -147.5 192.5t-202.5 67.5q-168 0 -283.5 -160.5t-115.5 -392.5q0 -152 53 -278.5t144.5 -199.5t201.5 -73q113 0 204 68t154 198l254 -160q-89 -189 -242 -289.5 t-356 -103.5l-31 -59q128 -8 196.5 -61.5t68.5 -147.5q0 -121 -129.5 -179.5t-401.5 -60.5v148q142 0 204 22t62 72q0 46 -47 64.5t-168 19.5v92l58 111q-142 39 -242.5 112t-173.5 193q-137 215 -137 510z" />
<glyph unicode="&#xc8;" horiz-adv-x="1249" d="M160 0v1612h985v-287h-678v-338h602v-287h-602v-413h678v-287h-985zM416 2085h305l160 -307h-254z" />
<glyph unicode="&#xc9;" horiz-adv-x="1249" d="M160 0v1612h985v-287h-678v-338h602v-287h-602v-413h678v-287h-985zM512 1778l160 307h305l-211 -307h-254z" />
<glyph unicode="&#xca;" horiz-adv-x="1249" d="M160 0v1612h985v-287h-678v-338h602v-287h-602v-413h678v-287h-985zM346 1778l207 307h287l207 -307h-256l-95 143l-94 -143h-256z" />
<glyph unicode="&#xcb;" horiz-adv-x="1249" d="M160 0v1612h985v-287h-678v-338h602v-287h-602v-413h678v-287h-985zM356 1778v258h258v-258h-258zM778 1778v258h258v-258h-258z" />
<glyph unicode="&#xcc;" horiz-adv-x="655" d="M47 2085h305l160 -307h-254zM174 0v1612h307v-1612h-307z" />
<glyph unicode="&#xcd;" horiz-adv-x="655" d="M143 1778l160 307h305l-211 -307h-254zM174 0v1612h307v-1612h-307z" />
<glyph unicode="&#xce;" horiz-adv-x="655" d="M-23 1778l207 307h287l207 -307h-256l-94 143l-95 -143h-256zM174 0v1612h307v-1612h-307z" />
<glyph unicode="&#xcf;" horiz-adv-x="655" d="M-12 1778v258h258v-258h-258zM174 0v1612h307v-1612h-307zM410 1778v258h258v-258h-258z" />
<glyph unicode="&#xd0;" horiz-adv-x="1495" d="M6 719v180h168v713h526q156 0 291 -60.5t231 -166.5t150.5 -255.5t54.5 -322.5q0 -177 -53.5 -327t-148.5 -255.5t-230.5 -165t-294.5 -59.5h-526v719h-168zM481 287h219q178 0 289 144t111 376q0 230 -111 374t-289 144h-219v-426h252v-180h-252v-432z" />
<glyph unicode="&#xd1;" horiz-adv-x="1474" d="M143 0v1612h308l573 -987v987h307v-1612h-307l-573 1034v-1034h-308zM356 1898q52 68 115.5 106t128.5 38q74 0 162 -49q54 -29 104 -29q76 0 133 72l119 -133q-51 -69 -114.5 -106.5t-129.5 -37.5q-40 0 -73 10t-88 39q-57 29 -107 29q-74 0 -131 -72z" />
<glyph unicode="&#xd2;" horiz-adv-x="1556" d="M78 805q0 250 87 440.5t247 295t370 104.5q206 0 364.5 -105t245.5 -296.5t87 -438.5q0 -248 -87 -438.5t-246.5 -295t-367.5 -104.5t-367 104.5t-246 294.5t-87 439zM406 805q0 -255 100 -403t272 -148t272.5 149t100.5 404q0 262 -98 406.5t-277 144.5 q-175 0 -272.5 -145.5t-97.5 -407.5zM498 2085h305l160 -307h-254z" />
<glyph unicode="&#xd3;" horiz-adv-x="1556" d="M78 805q0 250 87 440.5t247 295t370 104.5q206 0 364.5 -105t245.5 -296.5t87 -438.5q0 -248 -87 -438.5t-246.5 -295t-367.5 -104.5t-367 104.5t-246 294.5t-87 439zM406 805q0 -255 100 -403t272 -148t272.5 149t100.5 404q0 262 -98 406.5t-277 144.5 q-175 0 -272.5 -145.5t-97.5 -407.5zM594 1778l160 307h305l-211 -307h-254z" />
<glyph unicode="&#xd4;" horiz-adv-x="1556" d="M78 805q0 250 87 440.5t247 295t370 104.5q206 0 364.5 -105t245.5 -296.5t87 -438.5q0 -248 -87 -438.5t-246.5 -295t-367.5 -104.5t-367 104.5t-246 294.5t-87 439zM406 805q0 -255 100 -403t272 -148t272.5 149t100.5 404q0 262 -98 406.5t-277 144.5 q-175 0 -272.5 -145.5t-97.5 -407.5zM428 1778l207 307h287l206 -307h-256l-94 143l-94 -143h-256z" />
<glyph unicode="&#xd5;" horiz-adv-x="1556" d="M78 805q0 250 87 440.5t247 295t370 104.5q206 0 364.5 -105t245.5 -296.5t87 -438.5q0 -248 -87 -438.5t-246.5 -295t-367.5 -104.5t-367 104.5t-246 294.5t-87 439zM397 1898q52 68 115.5 106t128.5 38q74 0 162 -49q54 -29 104 -29q76 0 133 72l119 -133 q-51 -69 -114.5 -106.5t-129.5 -37.5q-40 0 -73 10t-88 39q-57 29 -107 29q-74 0 -131 -72zM406 805q0 -255 100 -403t272 -148t272.5 149t100.5 404q0 262 -98 406.5t-277 144.5q-175 0 -272.5 -145.5t-97.5 -407.5z" />
<glyph unicode="&#xd6;" horiz-adv-x="1556" d="M78 805q0 250 87 440.5t247 295t370 104.5q206 0 364.5 -105t245.5 -296.5t87 -438.5q0 -248 -87 -438.5t-246.5 -295t-367.5 -104.5t-367 104.5t-246 294.5t-87 439zM406 805q0 -255 100 -403t272 -148t272.5 149t100.5 404q0 262 -98 406.5t-277 144.5 q-175 0 -272.5 -145.5t-97.5 -407.5zM438 1778v258h258v-258h-258zM860 1778v258h258v-258h-258z" />
<glyph unicode="&#xd7;" d="M186 375l404 403l-404 404l107 106l403 -403l404 403l106 -106l-403 -404l403 -403l-106 -107l-404 404l-403 -404z" />
<glyph unicode="&#xd8;" horiz-adv-x="1556" d="M78 805q0 249 87 439.5t246 295.5t367 105q236 0 424 -148l113 148l110 -84l-127 -164q181 -239 181 -592q0 -249 -87.5 -439t-247 -294.5t-368.5 -104.5q-264 0 -450 174l-136 -174l-108 84l151 197q-155 230 -155 557zM406 807q0 -166 40 -285l570 738q-98 98 -238 98 q-177 0 -274.5 -145t-97.5 -406zM516 387q100 -133 262 -133q172 0 272.5 148.5t100.5 404.5q0 190 -55 328z" />
<glyph unicode="&#xd9;" horiz-adv-x="1515" d="M150 662v950h307v-948q0 -195 79 -302.5t222 -107.5t222 107.5t79 302.5v948h307v-950q0 -332 -158.5 -513.5t-449.5 -181.5q-292 0 -450 181t-158 514zM477 2085h305l160 -307h-254z" />
<glyph unicode="&#xda;" horiz-adv-x="1515" d="M150 662v950h307v-948q0 -195 79 -302.5t222 -107.5t222 107.5t79 302.5v948h307v-950q0 -332 -158.5 -513.5t-449.5 -181.5q-292 0 -450 181t-158 514zM573 1778l160 307h305l-211 -307h-254z" />
<glyph unicode="&#xdb;" horiz-adv-x="1515" d="M150 662v950h307v-948q0 -195 79 -302.5t222 -107.5t222 107.5t79 302.5v948h307v-950q0 -332 -158.5 -513.5t-449.5 -181.5q-292 0 -450 181t-158 514zM408 1778l206 307h287l207 -307h-256l-94 143l-94 -143h-256z" />
<glyph unicode="&#xdc;" horiz-adv-x="1515" d="M150 662v950h307v-948q0 -195 79 -302.5t222 -107.5t222 107.5t79 302.5v948h307v-950q0 -332 -158.5 -513.5t-449.5 -181.5q-292 0 -450 181t-158 514zM418 1778v258h258v-258h-258zM840 1778v258h258v-258h-258z" />
<glyph unicode="&#xdd;" d="M8 1612h350l338 -633l338 633h352l-536 -967v-645h-307v645zM512 1778l160 307h305l-211 -307h-254z" />
<glyph unicode="&#xde;" horiz-adv-x="1351" d="M147 0v1612h308v-246h276q155 0 282.5 -71.5t200 -196.5t72.5 -277t-72.5 -277.5t-200 -197.5t-282.5 -72h-276v-274h-308zM455 561h256q104 0 175.5 76t71.5 186q0 109 -70.5 182.5t-176.5 73.5h-256v-518z" />
<glyph unicode="&#xdf;" horiz-adv-x="1372" d="M156 0v1110q0 254 137.5 394.5t386.5 140.5q235 0 377.5 -120.5t142.5 -318.5q0 -134 -70.5 -228.5t-193.5 -123.5q175 -46 258.5 -148.5t83.5 -271.5q0 -215 -139.5 -341t-378.5 -126q-138 0 -244 45l62 267q74 -27 159 -27q99 0 156 53.5t57 147.5q0 115 -81.5 169 t-254.5 56v287q122 9 190 68t68 157q0 80 -53.5 129t-140.5 49q-105 0 -160 -65t-55 -189v-1114h-307z" />
<glyph unicode="&#xe0;" horiz-adv-x="2048" d="M283 -240v1923h1511v-1923h-1511zM385 -23l592 756l-592 756v-1512zM432 -129h1221l-611 784zM444 1579l596 -764l598 764h-1194zM1108 735l582 -745v1493z" />
<glyph unicode="&#xe1;" horiz-adv-x="2048" d="M283 -240v1923h1511v-1923h-1511zM385 -23l592 756l-592 756v-1512zM432 -129h1221l-611 784zM444 1579l596 -764l598 764h-1194zM1108 735l582 -745v1493z" />
<glyph unicode="&#xe2;" horiz-adv-x="2048" d="M283 -240v1923h1511v-1923h-1511zM385 -23l592 756l-592 756v-1512zM432 -129h1221l-611 784zM444 1579l596 -764l598 764h-1194zM1108 735l582 -745v1493z" />
<glyph unicode="&#xe3;" horiz-adv-x="2048" d="M283 -240v1923h1511v-1923h-1511zM385 -23l592 756l-592 756v-1512zM432 -129h1221l-611 784zM444 1579l596 -764l598 764h-1194zM1108 735l582 -745v1493z" />
<glyph unicode="&#xe4;" horiz-adv-x="2048" d="M283 -240v1923h1511v-1923h-1511zM385 -23l592 756l-592 756v-1512zM432 -129h1221l-611 784zM444 1579l596 -764l598 764h-1194zM1108 735l582 -745v1493z" />
<glyph unicode="&#xe5;" horiz-adv-x="2048" d="M283 -240v1923h1511v-1923h-1511zM385 -23l592 756l-592 756v-1512zM432 -129h1221l-611 784zM444 1579l596 -764l598 764h-1194zM1108 735l582 -745v1493z" />
<glyph unicode="&#xe6;" horiz-adv-x="2048" d="M283 -240v1923h1511v-1923h-1511zM385 -23l592 756l-592 756v-1512zM432 -129h1221l-611 784zM444 1579l596 -764l598 764h-1194zM1108 735l582 -745v1493z" />
<glyph unicode="&#xe7;" horiz-adv-x="2048" d="M283 -240v1923h1511v-1923h-1511zM385 -23l592 756l-592 756v-1512zM432 -129h1221l-611 784zM444 1579l596 -764l598 764h-1194zM1108 735l582 -745v1493z" />
<glyph unicode="&#xe8;" horiz-adv-x="2048" d="M283 -240v1923h1511v-1923h-1511zM385 -23l592 756l-592 756v-1512zM432 -129h1221l-611 784zM444 1579l596 -764l598 764h-1194zM1108 735l582 -745v1493z" />
<glyph unicode="&#xe9;" horiz-adv-x="2048" d="M283 -240v1923h1511v-1923h-1511zM385 -23l592 756l-592 756v-1512zM432 -129h1221l-611 784zM444 1579l596 -764l598 764h-1194zM1108 735l582 -745v1493z" />
<glyph unicode="&#xea;" horiz-adv-x="1331" d="M59 643q0 190 78.5 346t215 245t302.5 89q122 0 232.5 -53t190 -143.5t126.5 -215t47 -262.5q0 -45 -6 -94h-846q15 -136 97.5 -215.5t208.5 -79.5q136 0 249 150l267 -154q-109 -149 -236 -219t-289 -70q-183 0 -328.5 86.5t-227 241t-81.5 348.5zM346 1456l207 307h287 l207 -307h-256l-95 143l-94 -143h-256zM406 817h499q-23 115 -86.5 174.5t-161.5 59.5q-94 0 -160 -62t-91 -172z" />
<glyph unicode="&#xeb;" horiz-adv-x="1331" d="M59 643q0 190 78.5 346t215 245t302.5 89q122 0 232.5 -53t190 -143.5t126.5 -215t47 -262.5q0 -45 -6 -94h-846q15 -136 97.5 -215.5t208.5 -79.5q136 0 249 150l267 -154q-109 -149 -236 -219t-289 -70q-183 0 -328.5 86.5t-227 241t-81.5 348.5zM356 1456v258h258 v-258h-258zM406 817h499q-23 115 -86.5 174.5t-161.5 59.5q-94 0 -160 -62t-91 -172zM778 1456v258h258v-258h-258z" />
<glyph unicode="&#xec;" horiz-adv-x="614" d="M27 1763h305l160 -307h-254zM154 0v1290h307v-1290h-307z" />
<glyph unicode="&#xed;" horiz-adv-x="614" d="M123 1456l160 307h305l-211 -307h-254zM154 0v1290h307v-1290h-307z" />
<glyph unicode="&#xee;" horiz-adv-x="614" d="M-43 1456l207 307h287l206 -307h-256l-94 143l-94 -143h-256zM154 0v1290h307v-1290h-307z" />
<glyph unicode="&#xef;" horiz-adv-x="614" d="M-33 1456v258h258v-258h-258zM154 0v1290h307v-1290h-307zM389 1456v258h258v-258h-258z" />
<glyph unicode="&#xf0;" horiz-adv-x="1351" d="M72 600q0 184 76.5 328t214.5 223.5t315 79.5q86 0 135 -25q-25 52 -67 97.5t-91 72.5l-368 -170l-97 166l275 125q-69 43 -195 78l142 188q232 -54 327 -123l234 111l102 -162l-172 -84q172 -145 274.5 -388t102.5 -509q0 -183 -78 -329.5t-216 -229t-310 -82.5 q-171 0 -309 82t-216.5 227t-78.5 324zM377 598q0 -149 81 -237.5t218 -88.5q136 0 217.5 89t81.5 237q0 151 -82 241.5t-219 90.5q-134 0 -215.5 -91.5t-81.5 -240.5z" />
<glyph unicode="&#xf1;" d="M131 0v1290h266l41 -112q49 67 132.5 105t181.5 38q223 0 366.5 -158.5t143.5 -404.5v-758h-308v758q0 120 -70 198t-177 78q-109 0 -189 -82t-80 -194v-758h-307zM315 1577q51 68 114.5 105.5t129.5 37.5q74 0 162 -49q54 -29 104 -29q76 0 133 72l119 -133 q-106 -143 -243 -143q-40 0 -73.5 10t-88.5 39q-57 29 -107 29q-74 0 -131 -72z" />
<glyph unicode="&#xf2;" horiz-adv-x="1351" d="M72 645q0 194 77.5 348.5t216 241t312.5 86.5q172 0 309.5 -87t215 -241.5t77.5 -347.5q0 -194 -77.5 -349t-215.5 -242t-311 -87t-311 87t-215.5 242t-77.5 349zM377 643q0 -158 85 -263.5t214 -105.5t214 105.5t85 265.5t-85.5 265.5t-215.5 105.5q-127 0 -212 -106.5 t-85 -266.5zM395 1763h305l160 -307h-254z" />
<glyph unicode="&#xf3;" horiz-adv-x="1351" d="M72 645q0 194 77.5 348.5t216 241t312.5 86.5q172 0 309.5 -87t215 -241.5t77.5 -347.5q0 -194 -77.5 -349t-215.5 -242t-311 -87t-311 87t-215.5 242t-77.5 349zM377 643q0 -158 85 -263.5t214 -105.5t214 105.5t85 265.5t-85.5 265.5t-215.5 105.5q-127 0 -212 -106.5 t-85 -266.5zM492 1456l159 307h305l-211 -307h-253z" />
<glyph unicode="&#xf4;" horiz-adv-x="1351" d="M72 645q0 194 77.5 348.5t216 241t312.5 86.5q172 0 309.5 -87t215 -241.5t77.5 -347.5q0 -194 -77.5 -349t-215.5 -242t-311 -87t-311 87t-215.5 242t-77.5 349zM326 1456l206 307h287l207 -307h-256l-94 143l-94 -143h-256zM377 643q0 -158 85 -263.5t214 -105.5 t214 105.5t85 265.5t-85.5 265.5t-215.5 105.5q-127 0 -212 -106.5t-85 -266.5z" />
<glyph unicode="&#xf5;" horiz-adv-x="1351" d="M72 645q0 194 77.5 348.5t216 241t312.5 86.5q172 0 309.5 -87t215 -241.5t77.5 -347.5q0 -194 -77.5 -349t-215.5 -242t-311 -87t-311 87t-215.5 242t-77.5 349zM295 1577q51 68 114.5 105.5t129.5 37.5q73 0 161 -49q54 -29 105 -29q76 0 133 72l119 -133 q-51 -69 -114.5 -106t-129.5 -37q-40 0 -73.5 10t-88.5 39q-57 29 -106 29q-74 0 -131 -72zM377 643q0 -158 85 -263.5t214 -105.5t214 105.5t85 265.5t-85.5 265.5t-215.5 105.5q-127 0 -212 -106.5t-85 -266.5z" />
<glyph unicode="&#xf6;" horiz-adv-x="1351" d="M72 645q0 194 77.5 348.5t216 241t312.5 86.5q172 0 309.5 -87t215 -241.5t77.5 -347.5q0 -194 -77.5 -349t-215.5 -242t-311 -87t-311 87t-215.5 242t-77.5 349zM336 1456v258h258v-258h-258zM377 643q0 -158 85 -263.5t214 -105.5t214 105.5t85 265.5t-85.5 265.5 t-215.5 105.5q-127 0 -212 -106.5t-85 -266.5zM758 1456v258h258v-258h-258z" />
<glyph unicode="&#xf7;" d="M109 702v152h1175v-152h-1175zM563 365q0 55 38.5 94t94.5 39t94.5 -39t38.5 -94q0 -56 -39 -95t-94 -39t-94 39t-39 95zM563 1192q0 56 38.5 94.5t94.5 38.5t94.5 -38.5t38.5 -94.5t-38.5 -94.5t-94.5 -38.5t-94.5 38.5t-38.5 94.5z" />
<glyph unicode="&#xf8;" horiz-adv-x="1351" d="M72 645q0 193 77.5 347.5t215.5 241.5t311 87q199 0 362 -123l111 131l106 -96l-116 -139q141 -194 141 -449q0 -194 -77.5 -349t-215.5 -242t-311 -87q-212 0 -373 133l-113 -135l-106 98l121 144q-133 186 -133 438zM377 647q0 -108 39 -190l424 504q-75 55 -164 55 q-128 0 -213.5 -105.5t-85.5 -263.5zM504 338q73 -64 172 -64q129 0 214 105.5t85 265.5q0 108 -45 201z" />
<glyph unicode="&#xf9;" d="M131 532v758h307v-758q0 -120 70.5 -198t177.5 -78q109 0 188.5 82t79.5 194v758h308v-1290h-267l-41 113q-51 -68 -133 -106t-180 -38q-223 0 -366.5 158.5t-143.5 404.5zM416 1763h305l160 -307h-254z" />
<glyph unicode="&#xfa;" d="M131 532v758h307v-758q0 -120 70.5 -198t177.5 -78q109 0 188.5 82t79.5 194v758h308v-1290h-267l-41 113q-51 -68 -133 -106t-180 -38q-223 0 -366.5 158.5t-143.5 404.5zM512 1456l160 307h305l-211 -307h-254z" />
<glyph unicode="&#xfb;" d="M131 532v758h307v-758q0 -120 70.5 -198t177.5 -78q109 0 188.5 82t79.5 194v758h308v-1290h-267l-41 113q-51 -68 -133 -106t-180 -38q-223 0 -366.5 158.5t-143.5 404.5zM346 1456l207 307h287l207 -307h-256l-95 143l-94 -143h-256z" />
<glyph unicode="&#xfc;" d="M131 532v758h307v-758q0 -120 70.5 -198t177.5 -78q109 0 188.5 82t79.5 194v758h308v-1290h-267l-41 113q-51 -68 -133 -106t-180 -38q-223 0 -366.5 158.5t-143.5 404.5zM356 1456v258h258v-258h-258zM778 1456v258h258v-258h-258z" />
<glyph unicode="&#xfd;" horiz-adv-x="1269" d="M45 1290h322l278 -813l281 813h321l-467 -1364q-43 -126 -140 -199t-222 -73q-175 0 -299 139l186 197q41 -49 94 -49q31 0 55.5 20.5t34.5 56.5l9 27zM471 1456l160 307h305l-211 -307h-254z" />
<glyph unicode="&#xfe;" horiz-adv-x="1413" d="M139 -326v2044h307v-547q116 150 302 150q122 0 233.5 -54t192.5 -145t128.5 -216.5t47.5 -262.5q0 -138 -46.5 -263.5t-125 -215.5t-188 -143.5t-230.5 -53.5q-178 0 -314 133v-426h-307zM446 645q0 -172 83.5 -281.5t213.5 -109.5q124 0 211.5 114t87.5 275 q0 164 -86.5 277.5t-212.5 113.5q-129 0 -213 -110t-84 -279z" />
<glyph unicode="&#xff;" horiz-adv-x="1269" d="M45 1290h322l278 -813l281 813h321l-467 -1364q-43 -126 -140 -199t-222 -73q-175 0 -299 139l186 197q41 -49 94 -49q31 0 55.5 20.5t34.5 56.5l9 27zM315 1456v258h258v-258h-258zM737 1456v258h258v-258h-258z" />
<glyph unicode="&#x152;" horiz-adv-x="2252" d="M78 805q0 249 87 439.5t246 295.5t367 105q224 0 383 -117v84h985v-287h-678v-338h603v-287h-603v-413h678v-287h-985v88q-169 -121 -383 -121q-208 0 -367 104.5t-246 294.5t-87 439zM406 805q0 -255 100 -403t272 -148t272.5 149t100.5 404q0 262 -98 406.5t-277 144.5 q-175 0 -272.5 -145.5t-97.5 -407.5z" />
<glyph unicode="&#x153;" horiz-adv-x="2211" d="M72 645q0 193 77.5 347.5t215 241.5t309.5 87q274 0 438 -203q161 205 436 205q159 0 293.5 -90t212.5 -245t78 -339q0 -45 -6 -94h-846q15 -136 97 -215.5t208 -79.5q137 0 250 150l266 -154q-109 -149 -236 -219t-288 -70q-288 0 -465 207q-157 -207 -434 -207 q-174 0 -312.5 87t-216 242t-77.5 349zM377 643q0 -158 85 -263.5t214 -105.5t214 105.5t85 265.5t-85.5 265.5t-215.5 105.5q-127 0 -212 -106.5t-85 -266.5zM1286 817h500q-23 115 -86.5 174.5t-161.5 59.5q-94 0 -160.5 -62t-91.5 -172z" />
<glyph unicode="&#x178;" horiz-adv-x="2048" d="M283 -240v1923h1511v-1923h-1511zM385 -23l592 756l-592 756v-1512zM432 -129h1221l-611 784zM444 1579l596 -764l598 764h-1194zM1108 735l582 -745v1493z" />
<glyph unicode="&#x2c6;" horiz-adv-x="2048" d="M283 -240v1923h1511v-1923h-1511zM385 -23l592 756l-592 756v-1512zM432 -129h1221l-611 784zM444 1579l596 -764l598 764h-1194zM1108 735l582 -745v1493z" />
<glyph unicode="&#x2dc;" horiz-adv-x="1024" d="M131 1577q51 68 114.5 105.5t129.5 37.5q74 0 162 -49q54 -29 104 -29q76 0 133 72l119 -133q-51 -69 -114.5 -106t-129.5 -37q-40 0 -73.5 10t-88.5 39q-57 29 -106 29q-74 0 -131 -72z" />
<glyph unicode="&#x2000;" horiz-adv-x="1093" />
<glyph unicode="&#x2001;" horiz-adv-x="2187" />
<glyph unicode="&#x2002;" horiz-adv-x="1093" />
<glyph unicode="&#x2003;" horiz-adv-x="2187" />
<glyph unicode="&#x2004;" horiz-adv-x="729" />
<glyph unicode="&#x2005;" horiz-adv-x="546" />
<glyph unicode="&#x2006;" horiz-adv-x="364" />
<glyph unicode="&#x2007;" horiz-adv-x="364" />
<glyph unicode="&#x2008;" horiz-adv-x="273" />
<glyph unicode="&#x2009;" horiz-adv-x="437" />
<glyph unicode="&#x200a;" horiz-adv-x="121" />
<glyph unicode="&#x2010;" horiz-adv-x="778" d="M121 532v293h538v-293h-538z" />
<glyph unicode="&#x2011;" horiz-adv-x="778" d="M121 532v293h538v-293h-538z" />
<glyph unicode="&#x2012;" horiz-adv-x="778" d="M121 532v293h538v-293h-538z" />
<glyph unicode="&#x2013;" horiz-adv-x="1024" d="M0 621v122h1024v-122h-1024z" />
<glyph unicode="&#x2014;" horiz-adv-x="2048" d="M0 621v122h2048v-122h-2048z" />
<glyph unicode="&#x2018;" horiz-adv-x="532" d="M113 1118v307l137 293h184l-137 -293h123v-307h-307z" />
<glyph unicode="&#x2019;" horiz-adv-x="532" d="M98 1118l138 293h-123v307h307v-307l-137 -293h-185z" />
<glyph unicode="&#x201a;" horiz-adv-x="532" d="M98 -326l138 293h-123v307h307v-307l-137 -293h-185z" />
<glyph unicode="&#x201c;" horiz-adv-x="942" d="M113 1118v307l137 293h184l-137 -293h123v-307h-307zM522 1118v307l137 293h185l-137 -293h122v-307h-307z" />
<glyph unicode="&#x201d;" horiz-adv-x="942" d="M98 1118l138 293h-123v307h307v-307l-137 -293h-185zM508 1118l137 293h-123v307h307v-307l-137 -293h-184z" />
<glyph unicode="&#x201e;" horiz-adv-x="942" d="M98 -326l138 293h-123v307h307v-307l-137 -293h-185zM508 -326l137 293h-123v307h307v-307l-137 -293h-184z" />
<glyph unicode="&#x2022;" horiz-adv-x="819" d="M174 719q0 95 69.5 164t166.5 69t166 -69t69 -166t-69 -166.5t-166 -69.5t-166.5 70t-69.5 168z" />
<glyph unicode="&#x202f;" horiz-adv-x="437" />
<glyph unicode="&#x2039;" horiz-adv-x="778" d="M98 698l277 512h307l-276 -512l276 -512h-307z" />
<glyph unicode="&#x203a;" horiz-adv-x="778" d="M96 186l277 512l-277 512h307l277 -512l-277 -512h-307z" />
<glyph unicode="&#x205f;" horiz-adv-x="546" />
<glyph unicode="&#x20ac;" horiz-adv-x="1269" d="M20 594l41 176h82q-2 20 -2 47q0 33 4 68h-125l41 168h105q51 266 216 429t384 163q301 0 471 -273l-193 -188q-50 83 -122.5 128.5t-157.5 45.5q-148 0 -236 -131q-23 -34 -41.5 -85t-19.5 -89h594l-41 -168h-586q-6 -50 -6 -72q0 -25 2 -43h565l-41 -176h-501 q14 -121 53 -176q115 -164 287 -164q138 0 239 125l168 -223q-183 -189 -426 -189q-300 0 -475 250q-54 78 -93 183t-46 194h-140z" />
<glyph unicode="&#x2122;" horiz-adv-x="1617" d="M66 1454v158h589v-158h-211v-637h-168v637h-210zM735 817v795h180l179 -262l178 262h180v-795h-168v531l-190 -277l-191 277v-531h-168z" />
<glyph unicode="&#x25fc;" horiz-adv-x="1290" d="M0 0v1290h1290v-1290h-1290z" />
</font>
</defs>
</svg>
